<?xml version="1.0" encoding="utf-8"?>
<!-- Generator: Adobe Illustrator 25.4.1, SVG Export Plug-In . SVG Version: 6.00 Build 0)  -->
<!DOCTYPE svg PUBLIC "-//W3C//DTD SVG 1.1//EN" "http://www.w3.org/Graphics/SVG/1.1/DTD/svg11.dtd" [
	<!ENTITY ns_extend "http://ns.adobe.com/Extensibility/1.0/">
	<!ENTITY ns_ai "http://ns.adobe.com/AdobeIllustrator/10.0/">
	<!ENTITY ns_graphs "http://ns.adobe.com/Graphs/1.0/">
	<!ENTITY ns_vars "http://ns.adobe.com/Variables/1.0/">
	<!ENTITY ns_imrep "http://ns.adobe.com/ImageReplacement/1.0/">
	<!ENTITY ns_sfw "http://ns.adobe.com/SaveForWeb/1.0/">
	<!ENTITY ns_custom "http://ns.adobe.com/GenericCustomNamespace/1.0/">
	<!ENTITY ns_adobe_xpath "http://ns.adobe.com/XPath/1.0/">
]>
<svg version="1.1" id="Layer_1" xmlns:x="&ns_extend;" xmlns:i="&ns_ai;" xmlns:graph="&ns_graphs;"
	 xmlns="http://www.w3.org/2000/svg" xmlns:xlink="http://www.w3.org/1999/xlink" x="0px" y="0px" viewBox="0 0 496.5 195.1"
	 style="enable-background:new 0 0 496.5 195.1;" xml:space="preserve">
<style type="text/css">
	.st0{fill-rule:evenodd;clip-rule:evenodd;fill:#FFC10E;}
	.st1{fill:#0060AE;}
	.st2{fill:#FFC10E;}
	.st3{fill:none;}
</style>
<metadata>
	<sfw  xmlns="&ns_sfw;">
		<slices></slices>
		<sliceSourceBounds  bottomLeftOrigin="true" height="172.7" width="466.4" x="18.2" y="127.3"></sliceSourceBounds>
	</sfw>
</metadata>
<g>
	<g>
		<g>
			<g>
				<path class="st0" d="M279.6,135.3c-1.3-1.4-4.2-3.7-8.5-6.7l-6.8,5.3h7.9v12.3c0,3.8,0.3,6.2,1,7.3c0.7,1.1,1.9,1.6,3.7,1.6
					c1.7,0,3-0.7,3.9-2c0.8-1.4,1.2-3.4,1.2-6.1C282,141,281.2,137.1,279.6,135.3z M211.2,66.8l45.2,4.9l44.8,4.8l32.1,3.5
					l-41.9,32.8c5.4,3.9,9.1,7.2,11.1,10.1c1.8,2.7,3.1,6.4,3.8,11.1l97.5-76.2L211.2,66.8z M305.3,158.2c-0.3,0.7-0.5,1.4-0.8,2
					c-1.7,3.4-4.9,6.3-9.8,8.6c-4.8,2.3-10.4,3.5-16.8,3.5c-7,0-13-1.3-18-4c-5-2.7-8.2-6.1-9.8-10.2c-1.1-2.9-1.8-6.8-2.1-11.4
					l-47,36.7l283.6-10L305.3,158.2z"/>
			</g>
		</g>
		<path class="st1" d="M138.9,69.1h43.8v20.2h-17.5v19.2h16.4v19.2h-16.4v22.2h19.3v20.2h-45.5V69.1z"/>
		<path class="st1" d="M243.4,99.7H219v-7.5c0-3.5-0.3-5.7-0.9-6.7c-0.6-1-1.7-1.4-3.1-1.4c-1.6,0-2.8,0.6-3.6,1.9
			c-0.8,1.3-1.2,3.2-1.2,5.9c0,3.4,0.5,5.9,1.4,7.6c0.9,1.7,3.3,3.8,7.4,6.2c11.7,6.9,19.1,12.6,22.1,17.1c3,4.5,4.6,11.6,4.6,21.5
			c0,7.2-0.8,12.5-2.5,15.9c-1.7,3.4-4.9,6.3-9.8,8.6c-4.8,2.3-10.4,3.5-16.8,3.5c-7,0-13-1.3-18-4c-5-2.7-8.2-6.1-9.8-10.2
			c-1.5-4.1-2.3-10-2.3-17.5v-6.6h24.4v12.3c0,3.8,0.3,6.2,1,7.3c0.7,1.1,1.9,1.6,3.6,1.6c1.7,0,3-0.7,3.9-2.1
			c0.9-1.4,1.3-3.4,1.3-6.1c0-5.9-0.8-9.8-2.4-11.7c-1.7-1.8-5.8-4.9-12.3-9.2c-6.5-4.3-10.9-7.5-13-9.4c-2.1-2-3.9-4.7-5.3-8.1
			c-1.4-3.5-2.1-7.9-2.1-13.2c0-7.7,1-13.4,3-17c2-3.6,5.2-6.4,9.6-8.4c4.4-2,9.7-3,16-3c6.8,0,12.6,1.1,17.4,3.3
			c4.8,2.2,8,5,9.5,8.3c1.6,3.3,2.3,9,2.3,17.1V99.7z"/>
		<path class="st1" d="M304.8,99.7v-4c0-8-0.8-13.7-2.3-17.1c-0.4-0.7-0.8-1.4-1.3-2.1c-1.8-2.4-4.5-4.5-8.3-6.2
			c-4.8-2.2-10.6-3.3-17.4-3.3c-6.2,0-11.6,1-16,3c-1.1,0.5-2.1,1.1-3.1,1.7c-2.8,1.8-5,4-6.5,6.7c-2,3.6-3,9.2-3,17
			c0,5.3,0.7,9.8,2.1,13.2c1.4,3.5,3.1,6.1,5.3,8.1c2.1,2,6.5,5.1,13,9.4c1.3,0.9,2.6,1.7,3.7,2.5l20.3-15.9c-3.1-2.2-6.8-4.5-11-7
			c-4.1-2.4-6.6-4.5-7.4-6.1c-0.9-1.7-1.4-4.3-1.4-7.6c0-2.6,0.4-4.6,1.2-5.9c0.8-1.3,2-1.9,3.6-1.9c1.5,0,2.5,0.5,3.1,1.4
			c0.6,1,0.9,3.2,0.9,6.7v7.5H304.8z"/>
		<path class="st1" d="M264.3,133.9L248,146.6c-0.1-1.9-0.2-3.9-0.2-6.1v-6.6H264.3z"/>
		<path class="st1" d="M307,144.3c0,5.9-0.5,10.5-1.7,13.9l-27.2-2.3l28.1-22C306.8,136.9,307,140.4,307,144.3z"/>
		<g>
			<g>
				<path class="st1" d="M120.9,70.5C102.2,64.4,83.4,58.2,64.6,52c-2-0.7-3.9-1-5.6,0.7c-1.6,1.6-1.2,3.5-0.6,5.3
					c5.5,16.7,11,33.5,16.6,50.2V69.1h26.2c8.3,0,14.6,0.6,18.8,2c1.5,0.4,3,1.1,4.3,1.9C123.7,71.7,122.4,71,120.9,70.5z"/>
				<g>
					<path class="st2" d="M120.3,57.3c0.1,2.4-0.7,4.3-3.5,4.7c-2.6,0.4-4.3-1.3-4.7-4.4C109.4,38.2,96.6,24.2,77.9,20
						c-22.6-5-45.7,9.5-51,32.1c-0.2,0.8-0.4,1.5-0.6,2.3c-0.7,2.5-2.4,3.5-4.8,3c-2.6-0.6-3.6-2.4-3.1-5c2-10.1,6.6-19,14-26.2
						c14.9-14.4,32.5-19,52.2-12.8c19.8,6.2,31.4,20.4,35.5,40.8C120.2,55.1,120.2,56.1,120.3,57.3z"/>
				</g>
				<g>
					<path class="st2" d="M33.6,62.2c0.1-16.4,11.8-30.7,28.3-34.2c15.9-3.4,32.4,5,39.2,20.1c0.4,0.9,0.8,1.9,1.1,2.8
						c0.7,2.3-0.2,4.1-2.3,4.9c-2.2,0.9-4.3,0.3-5.3-2.1c-1.3-3.1-2.8-6.1-5-8.7c-7.2-8.5-18.8-11.7-29.2-8.1
						c-10.8,3.7-17.8,13-18.3,24.4c-0.5,11.1,5.7,21.2,15.8,25.8c0.6,0.3,1.2,0.5,1.8,0.8c2.5,1,3.4,3,2.5,5.4
						c-0.9,2.5-3,3.1-5.5,2.2c-7.5-2.8-13.4-7.5-17.7-14.3C35.5,75.5,33.8,69.2,33.6,62.2z"/>
				</g>
			</g>
		</g>
		<path class="st2" d="M101.3,86.4v22.5c1.1,0,2-0.1,2.6-0.1c2.6,0,4.2-0.6,4.9-1.9c0.7-1.3,1.1-4.9,1.1-10.9c0-3.2-0.3-5.4-0.9-6.6
			c-0.6-1.3-1.3-2.1-2.3-2.4C105.8,86.6,104,86.4,101.3,86.4z"/>
		<path class="st1" d="M132.9,122.4c-2.1-3.2-6.3-5.5-12.4-6.9c5.4-1.2,9.1-3,11-5.3c1.9-2.3,2.8-6.5,2.8-12.4c0-8.7-1.3-15-3.9-19
			c-1.7-2.5-3.7-4.5-6-5.9c0.2,0.4,0.4,0.8,0.4,1.3c0.4,2.4-1.1,3.7-2.9,4.8c-3.2,1.8-6.3,3.9-9.5,5.6c-1.8,1-1.6,1.6-0.3,2.8
			c2.4,2.3,4.8,4.7,7.1,7.1c2.5,2.7,2.6,4.6,0,7.2c-3.6,3.7-7.2,7.3-10.9,10.9c-2.6,2.5-4.6,2.5-7.2-0.2c-2.8-2.8-5.5-5.8-8.5-9
			c-2.7,4.4-4.9,8.1-7.1,11.8c-1,1.8-2.2,3.1-4.5,2.9c-2.3-0.2-3.3-1.9-4-4c-0.7-2-1.3-4-2-6.1v61.8h30.4c10.6,0,17.5-0.6,21-1.8
			c3.4-1.2,5.9-3.5,7.4-6.8c1.6-3.3,2.3-8.4,2.3-15.2V137C136.2,130.4,135.1,125.6,132.9,122.4z"/>
		<g>
			<circle class="st1" cx="345.6" cy="143.7" r="27.5"/>
			<g>
				<path class="st3" d="M330.9,120.8C330.9,120.8,330.9,120.8,330.9,120.8C330.9,120.8,330.9,120.8,330.9,120.8
					C330.9,120.8,331,120.7,330.9,120.8c0.1-0.3,0.2-0.6,0.3-0.7c-0.1,0.1-0.2,0.2-0.4,0.3c0,0.1-0.1,0.1-0.1,0.2
					C330.8,120.6,330.8,120.7,330.9,120.8z"/>
				<path class="st3" d="M357.7,123.8c0.1,0.1,0.3,0.1,0.4,0c0.1-0.2-0.1-0.3-0.2-0.4c-0.3-0.3-0.5-0.5-0.9-0.4
					c-0.2,0-0.3,0.1-0.4,0.2c-0.1,0.1,0.1,0.3,0.1,0.4c0.2,0.3,0.5,0.5,0.4,1.1c0,0.3,0.4,0.4,0.6,0.5c0.1,0,0.2,0,0.2-0.1
					c0-0.3,0.1-0.6-0.2-0.7c-0.1-0.1-0.2-0.3-0.3-0.5C357.6,123.7,357.7,123.7,357.7,123.8z"/>
				<path class="st3" d="M331.9,119.6c-0.1,0-0.1,0.1-0.2,0.1c0.1,0,0.2,0,0.3,0C332,119.7,331.9,119.7,331.9,119.6z"/>
				<path class="st3" d="M354.9,125.6c0-0.1-0.1-0.2-0.2-0.1c-0.1,0.1,0,0.2,0,0.3c0.4,1.1,0.9,2.1,1.4,3.1c0-0.8-0.1-1.4-0.5-1.9
					C355.4,126.5,355.1,126.1,354.9,125.6z"/>
				<path class="st3" d="M366,125.2c-0.3-0.3-0.5-0.6-0.8-0.9c-0.1-0.1-0.3-0.3-0.4-0.4c0.1,0.2,0.2,0.4,0.3,0.5
					C365.4,124.6,365.7,124.9,366,125.2z"/>
				<path class="st3" d="M332.4,120.3c-0.1-0.1-0.2,0-0.3,0c-0.5,0-0.1-0.3-0.1-0.5c-0.3,0.2-0.5,0.4-0.8,0.8
					C331.7,120.6,332.1,120.8,332.4,120.3z"/>
				<path class="st3" d="M358.7,120c-0.2,0.2-0.5-0.2-0.6,0c-0.3,0.4-0.5,0-0.8-0.1C357.8,119.6,358.1,119.7,358.7,120z"/>
				<path class="st3" d="M351.7,117.2c0.4,0.1,0.7,0.2,1.1,0.3c-0.8,0-1.6,0.1-2.3-0.5C350.9,117.1,351.3,117.1,351.7,117.2z"/>
				<path class="st3" d="M347.3,119.8C347.3,119.8,347.3,119.8,347.3,119.8c-0.1-0.2-0.2-0.3,0-0.5c0.2-0.2,0.5,0,0.5,0.1
					c0.2,0.4,0.5,0.5,0.8,0.9c-0.4,0.3-0.8,0.1-1.2,0.1c0-0.3,0.2-0.3,0.2-0.6C347.6,119.8,347.5,119.8,347.3,119.8
					C347.3,119.8,347.3,119.8,347.3,119.8L347.3,119.8L347.3,119.8C347.3,119.8,347.3,119.8,347.3,119.8c-0.2,0.5-0.6,0.5-1,0.4
					C346.6,119.6,347,119.7,347.3,119.8z"/>
				<path class="st3" d="M333.7,128c0.2-0.1,0.4-0.1,0.7,0c-0.3,0.2-0.4,0.3-0.6,0.4c-0.1,0-0.2,0-0.3-0.1
					C333.5,127.9,333.6,128,333.7,128z"/>
				<path class="st3" d="M331.8,128.2c0.4-0.3,0.9-0.2,1.4-0.1C332.7,128.5,332.3,128,331.8,128.2z"/>
				<path class="st3" d="M341.1,132.2c-0.6,0.9-0.5,2.2-0.9,3.3c-0.1,0.3-0.2,0.4-0.4,0.5c-0.5,0.2-0.8,0.6-0.9,1.3
					c-0.1,0.5-0.3,1-0.4,1.5c-0.1,0.2-0.1,0.4-0.2,0.5c-0.3,0.2-0.6,0.4-0.4,0.9c0.1,0.2-0.2,0.3-0.3,0.4c-0.2,0.1-0.4,0.2-0.5,0.5
					c-0.2,0.3-0.4,0.5-0.2,1c0,0.1,0,0.3-0.1,0.4c-0.2,0.3-0.2,0.4,0.1,0.6c0.2,0.1,0.1,0.3,0,0.5c-0.3,0.9-0.3,0.9,0.4,1.3
					c-0.9,0.5-1.4,0.4-1.7-0.6c-0.1-0.5-0.4-1,0-1.5c0.1-0.1,0-0.1-0.1-0.1c-0.2,0-0.1-0.2-0.1-0.3c-0.4-1.7-0.3-3.4-0.4-5.1
					c0-0.6-0.3-1-0.7-1.2c-0.5-0.2-0.9-0.7-1.3-1.2c-0.6-0.9-0.7-1.6-0.2-2.6c0.2-0.5,0.2-1-0.2-1.4c0.1-0.1,0.3-0.1,0.4-0.3
					c0.3-0.8,0.9-1.1,1.6-1c0.1,0,0.2-0.1,0.3-0.1c0.6-0.4,1-0.1,1.5,0.3c0.3,0.2,0.8,0.2,1.2,0.2c0.3,0,0.5,0.2,0.5,0.5
					c0,0.6,0.3,0.4,0.5,0.4c0.8,0,1.6,0.3,2.4,0.7C341.2,131.7,341.3,132,341.1,132.2z"/>
				<path class="st3" d="M343.9,118.2c0.6,0.1,1.2-0.1,1.8,0C345.2,118.6,344.4,118.6,343.9,118.2z"/>
				<path class="st3" d="M356.7,135.5c-0.2,0.4-0.3,0.9-0.5,1.3c-0.1,0.3-0.2,0.6-0.5,0.5c-0.3-0.1-0.2-0.6-0.2-0.8
					c0.1-0.4,0.2-0.7,0.2-1.1c0-0.1,0.1-0.3,0.2-0.3c0.3,0,0.5-0.3,0.7-0.6C356.8,134.9,356.9,135.1,356.7,135.5z"/>
				<path class="st3" d="M366.5,133.9c0.3,0.3-0.2,0.8,0.2,1.1C366.3,134.8,366.2,134.5,366.5,133.9z"/>
				<path class="st3" d="M366.1,138.4c-0.5-0.3-0.4-0.7-0.2-1.1C366.3,137.6,365.9,138,366.1,138.4z"/>
				<path class="st3" d="M365.2,136c0.1-0.1,0.3-0.1,0.4-0.2c0.1,0,0.2-0.2,0.2,0c0,0.1,0.1,0.2,0.1,0.3c-0.2,0.5-0.2,1.1-0.6,1.5
					c-0.1-0.1-0.3-0.3-0.4-0.4c-0.2-0.2-0.1-0.5-0.2-0.8C364.8,135.9,365.1,136.1,365.2,136z"/>
				<path class="st3" d="M365.2,138.5c-0.4-0.4-0.7-0.7-0.9-1.2C364.6,137.7,365,137.8,365.2,138.5z"/>
				<path class="st3" d="M366.7,148.8c0,0-0.1,0.1-0.2,0c-0.1-0.1-0.1-0.2,0-0.3c0.3-0.1,0.5-0.5,0.8-0.4
					C367.1,148.4,366.9,148.6,366.7,148.8z"/>
				<path class="st3" d="M367.2,144.2c0,0.9-0.5,1.5-1.1,2.1c-0.2,0.2-0.6-0.2-0.6-0.6c0.1-0.5-0.2-0.9-0.2-1.4
					c0-0.3-0.3-0.4-0.5-0.3c-0.3,0.1-0.5-0.1-0.8-0.1c-0.2,0-0.3-0.2-0.2-0.4c0.3-0.6,0.2-1.3,0.4-1.9c0.1-0.3,0.3-0.6,0.5-0.5
					c0.4,0,0.6-0.1,0.9-0.4c0.1-0.1,0.3-0.6,0.5,0c0,0.1,0.1,0,0.1-0.1c0.1-0.2,0.2-0.3,0.4-0.1c0.1,0.2,0.3,0.3,0.2,0.7
					c-0.1,0.1-0.1,0.3-0.1,0.4c0,0.2,0.1,0.3,0.2,0.3c0.1,0,0.1-0.2,0.2-0.2c0.1-0.2,0.1-0.5,0.3-0.6
					C367.2,142.1,367.2,143.1,367.2,144.2z"/>
				<path class="st3" d="M367.7,140.8c0-0.2,0-0.3-0.3-0.3c-0.3,0.1-0.4-0.3-0.3-0.5c0.1-0.3,0.1-0.6-0.1-0.8
					c-0.2-0.3-0.2-0.6-0.2-1c0.3,0.2,0.3,0.6,0.6,0.9c0.3,0.2,0.4,0.8,0.4,1.3c0,0.3,0,0.6,0,1C367.6,141.2,367.7,141,367.7,140.8z"
					/>
				<path class="st3" d="M368.2,132.4c0,0.2-0.2,0-0.3,0c-0.1,0-0.3-0.1-0.3-0.1c-0.3,0.1-0.2-0.2-0.2-0.3c0-0.2,0.1-0.2,0.2-0.2
					c0.2,0.1,0.5,0.3,0.6-0.2c0-0.1,0.1,0,0.1,0.1C368.4,132,368.3,132.2,368.2,132.4z"/>
				<path class="st3" d="M330.4,121.2c0.1-0.2,0.4-0.1,0.4-0.5c0,0,0,0,0,0l0,0c0,0,0,0,0,0c0,0,0,0,0,0c-0.2,0.1-0.4,0.3-0.6,0.2
					c0-0.2,0.2-0.3,0.2-0.5c-0.3,0.2-0.6,0.4-0.9,0.6c0,0,0,0,0,0C329.8,121.6,330.1,121.6,330.4,121.2z"/>
				<path class="st3" d="M327.2,123.1c-0.1,0.1-0.2,0.2-0.4,0.3C327,123.3,327.1,123.2,327.2,123.1
					C327.2,123.1,327.2,123.1,327.2,123.1z"/>
				<path class="st3" d="M329.4,121.3c-0.3,0.2-0.6,0.4-1,0.7C328.8,121.8,329.1,121.6,329.4,121.3z"/>
				<path class="st2" d="M369.1,130.3c-0.2,0.2,0,0.5,0,0.8c0,0.1,0,0.1,0.1,0.1c0.2-0.1,0.1-0.3,0.2-0.5c0,0,0,0,0-0.1
					c0.1,0.1,0.1,0.2,0.2,0.2c-0.1-0.3-0.3-0.6-0.5-0.8C369.3,130,369.3,130.1,369.1,130.3z"/>
				<path class="st2" d="M360.5,121.6c0,0.1,0.2,0.1,0.1,0.3c0,0-0.1,0.1-0.2,0.1c-0.2,0-0.1-0.2-0.1-0.3c0-0.1-0.1-0.2-0.1-0.4
					c-0.2-0.5-0.3-0.5-0.7-0.2c-0.1,0.1-0.1,0-0.2,0c-0.4-0.3-0.8-0.4-1.3-0.6c-0.9-0.3-1.8-0.8-2.8-0.6c-0.2,0-0.6,0-0.7-0.4
					c0.4,0,0.6,0.4,1,0.2c-0.2-0.3-0.4-0.3-0.7-0.4c-0.3-0.2-0.7-0.3-1-0.4c-1.1-0.5-2.2-0.7-3.3-0.2c-0.3,0.1-0.6,0.2-0.9,0.2
					c-0.2,0-0.4,0-0.4,0.3c0,0.3,0.2,0.3,0.4,0.4c0.1,0,0.2,0,0.2,0c0.3-0.1,0.6,0,0.7,0.4c0.4,0.2,0.9,0.1,1-0.2
					c0.3-0.6,0.5-0.7,1-0.6c-0.1,0.2-0.3,0.1-0.5,0.2c-0.1,0.5,0.6,0.3,0.5,0.8c-0.7,0.2-1.5,0.4-2.2,0c-0.1,0-0.3,0.1-0.3-0.2
					c0-0.2-0.1-0.2-0.2-0.2c-0.1,0-0.2,0.1-0.2,0.2c0.1,0.2,0,0.2-0.1,0.2c-0.8,0.1-1.5,0.5-2.3,0.5c0,0.3,0.2,0.2,0.3,0.3
					c0.1,0.1,0.3,0.1,0.3,0.3c0,0.2-0.2,0.2-0.3,0.2c-0.3,0-0.6,0-0.9,0c-0.2,0-0.3,0.1-0.3,0.4c0,0.3-0.1,0.5,0.2,0.6
					c0.6,0.3,1.1,0.1,1.7-0.3c0.4-0.4,0.9-0.6,1.5-0.4c0.2,0.1,0.3,0.1,0.2,0.4c0,0.1-0.1,0.3,0,0.3c0.2,0,0.2-0.2,0.1-0.3
					c0-0.1,0-0.2,0.1-0.3c0.2,0.1,0.4,0.1,0.6,0.2c0-0.2-0.2-0.2-0.1-0.4c0.1-0.1,0.2,0,0.3,0c0.5,0.3,1.1,0.7,1.3,1.5
					c0,0.1,0.1,0.3,0.2,0.2c0.1,0,0.2-0.2,0.1-0.3c-0.2-0.4,0.1-0.3,0.2-0.3c0.2,0,0.3,0,0.5,0.1c0.1,0,0.1,0.1,0.2-0.1
					c0.3-0.8,0.5-0.8,0.9-0.3c0.1,0.2,0.2,0.2,0.3-0.1c0.1-0.1,0.5-0.1,0.4,0.1c-0.1,0.4,0.1,0.3,0.2,0.4c0.1,0.2,0.4,0.2,0.4,0.5
					c-0.3,0.1-0.6-0.1-0.9-0.3c-0.4-0.3-0.9-0.2-1.4-0.2c-0.1,0-0.3-0.1-0.3,0.2c0,0.2,0.1,0.3,0.2,0.4c0.3,0.3,0.7,0.2,1,0.4
					c0.1,0.1,0.4-0.1,0.3,0.2c0,0.3-0.1,0.6-0.4,0.6c-0.2,0-0.4,0-0.5-0.1c-0.4-0.2-0.8-0.3-1.2-0.6c-0.2-0.2-0.5-0.3-0.6-0.1
					c-0.2,0.4-0.4,0.2-0.5,0.1c-0.4-0.2-0.8-0.5-1.2-0.7c-0.1,0-0.1-0.1-0.1-0.2c0.1-0.5-0.2-0.5-0.4-0.5c-0.7-0.1-1.4,0.3-2.1,0.1
					c-0.8-0.2-1.2,0.3-1.7,0.8c-0.2,0.3-0.5,0.6-0.7,0.8c-0.4,0.4-0.7,0.8-0.6,1.5c0,0.1,0,0.2-0.1,0.3c-0.2,0.4-0.1,0.6,0.1,0.9
					c0.1,0.2,0.2,0.3,0.3,0.5c0.6,0.8,1.2,1.2,2.1,1c0.6-0.1,1.2-0.3,1.7,0.2c0.1,0.1,0.3,0.1,0.4,0.1c0.4,0,0.6,0.3,0.4,0.8
					c-0.2,0.5,0,0.8,0.2,1.2c0.4,0.7,0.6,1.5,0.3,2.4c-0.2,0.6-0.1,1.3,0.1,1.9c0.2,0.6,0.4,1.3,0.5,2c0.2,1.1,0.2,1.1,1.1,1.1
					c0.7,0,1.2-0.5,1.5-1.3c0.1-0.2,0.1-0.4,0.3-0.4c0.3-0.1,0.4-0.3,0.3-0.7c-0.1-0.5,0.1-0.7,0.4-0.8c0.7-0.4,0.9-0.8,0.7-1.8
					c-0.2-1.2,0-1.7,0.8-2.2c0.3-0.2,0.5-0.3,0.8-0.5c0.2-0.2,0.4-0.4,0.4-0.7c0.1-0.2,0.1-0.4-0.2-0.4c-0.3,0-0.6-0.1-0.8-0.1
					c-0.1,0-0.2-0.2-0.2-0.3c0-0.2,0.2-0.1,0.2-0.1c0.6,0,1.1-0.1,1.7-0.1c0.4,0,0.7-0.4,0.7-0.7c0-0.3-0.3-0.7-0.6-0.8
					c-0.2-0.1-0.5,0.1-0.6-0.3c-0.1-0.3-0.3-0.6-0.4-0.9c0.2,0,0.3,0.2,0.4,0.3c0.6,0.6,1.1,1.2,1.8,1.4c0.4,0.1,0.6,0.4,0.8,0.8
					c0.1,0.3,0.2,0.7,0.5,0.7c0.1,0,0.1,0.3,0.1,0.5c0,0.4,0,0.8,0,1.2c0,0.3,0.1,0.6,0.2,0.9c0.2,0.4,0.4,0.1,0.5-0.1
					c0-0.8,0.5-1,1-1.3c0.4-0.3,0.7-0.1,0.8,0.5c0.1,0.3,0,0.9,0.3,1c0.4,0.2,0.3,0.5,0.3,0.8c-0.1,0.8,0.1,1.6,0.2,2.4
					c-0.3-0.2-0.2-0.9-0.7-1.1c0.3,0.8,0.3,1.7,0.5,2.4c0.1,0.2,0.1,0.5,0.2,0.4c0.1-0.1,0.3-0.4,0.1-0.7c-0.2-0.3-0.1-0.6-0.2-0.8
					c0.2-0.2,0-0.4,0-0.6c0-0.6-0.3-1.2,0-1.9c0.1,0.4,0.2,0.6,0.3,0.9c0.1,0.2,0.1,0.3,0.3,0.3c0.2-0.1,0.2-0.3,0.2-0.5
					c0-0.3-0.1-0.6-0.1-0.9c0-0.2,0-0.4,0.2-0.6c0.2-0.2,0.2,0,0.3,0.1c0.5,0.3,1.2,0.1,1.2-0.4c0-0.6,0-1.2-0.2-1.8
					c0-0.1-0.1-0.2,0-0.2c0.1-0.1,0.2-0.1,0.2,0c0.1,0.4,0.4,0.6,0.5,1.1c0,0.2,0,0.4,0.2,0.4c0.2-0.1,0.1-0.3,0-0.5
					c-0.1-0.4,0-0.6,0.3-0.4c0.4,0.2,0.5-0.2,0.6-0.5c0.1,0.1,0,0.3,0.2,0.3c0-0.7-0.4-1-0.6-1.5c0.3-0.2,0.5,0,0.6,0.2
					c0.2,0.2,0.4,0.6,0.7,0.6c0,0,0.1,0,0.2,0.1c-0.9-1.6-2-3.2-3.2-4.6c-0.3-0.3-0.6-0.6-0.9-0.9c-0.1-0.1-0.2-0.3-0.3-0.5
					c-0.5-0.5-0.9-0.9-1.4-1.3C362.4,122.2,361.5,121.6,360.5,121.6C360.5,121.5,360.5,121.5,360.5,121.6z M354.7,125.7
					c0-0.1-0.1-0.2,0-0.3c0.1-0.1,0.2,0,0.2,0.1c0.2,0.5,0.5,0.9,0.8,1.3c0.4,0.5,0.5,1.2,0.5,1.9
					C355.6,127.8,355.1,126.8,354.7,125.7z M357.8,124.2c0.3,0.2,0.2,0.5,0.2,0.7c0,0.1-0.1,0.2-0.2,0.1c-0.3-0.1-0.6-0.2-0.6-0.5
					c0.1-0.6-0.3-0.7-0.4-1.1c-0.1-0.1-0.2-0.3-0.1-0.4c0.1-0.1,0.2-0.2,0.4-0.2c0.4,0,0.6,0.2,0.9,0.4c0.1,0.1,0.3,0.3,0.2,0.4
					c-0.1,0.1-0.3,0.2-0.4,0c0,0-0.1-0.1-0.2,0C357.6,123.9,357.7,124.2,357.8,124.2z"/>
				<polygon class="st2" points="330.9,120.8 330.9,120.8 330.9,120.8 				"/>
				<path class="st2" d="M325.3,126.9c0.1,0.2,0.3,0.3,0.5,0.3c-0.1,0.3-0.2,0.6-0.2,0.8c-0.1,0.7,0,1.1,0.6,1.3
					c0.1,0.1,0.2,0.2,0.3,0.3c0.3,0.4,0.5,0.9,1,0.9c-0.2-0.3-0.4-0.6-0.6-0.8c0-0.1-0.1-0.2-0.1-0.3c0.1-0.1,0.1-0.1,0.2,0
					c0.3,0.5,0.9,0.7,1.2,1.2c0.2,0.3,0.5,0.4,0.8,0.3c0.3-0.1,0.6-0.2,1-0.2c0.5,0,1-0.3,1.5,0.3c0.2,0.2,0.6,0.3,1,0
					c-0.4-0.1-0.7-0.1-0.7-0.7c0.1-0.6-0.1-0.7-0.5-0.4c-0.1,0.1-0.2,0.2-0.3,0.1c-0.1-0.1-0.1-0.3,0-0.4c0-0.1,0.1-0.2,0.1-0.3
					c0-0.1,0.1-0.2,0-0.3c-0.1-0.1-0.1,0-0.2,0c-0.2,0.1-0.3,0.4-0.4,0.6c-0.2,0.4-0.4,0.6-0.7,0.6c-0.3,0-0.4-0.5-0.4-0.8
					c-0.1-0.4,0.1-0.8,0.4-1c0.4-0.5,0.9-0.7,1.3-1.1c0.2-0.2,0.8-0.7,1,0.1c0,0.1,0.2,0.2,0.3,0.1c0.1-0.1,0.1-0.2,0-0.4
					c-0.1-0.3-0.2-0.6,0-0.9c0.3-0.4,0.9-0.6,0.9-1.4c0.6-0.5,1.1-1.2,1.7-1.8c0.2-0.2,0.4,0,0.6-0.1c0.3-0.1,0.7-0.4,1-0.6
					c0,0,0-0.1,0-0.1c-0.3,0.1-0.6,0.1-0.8,0.2c0-0.3,0-0.4,0.3-0.5c0.5-0.1,0.9,0,1.4-0.1c0.1,0,0.3-0.1,0.4-0.1
					c0.1,0,0.3,0.1,0.3-0.1c0-0.2-0.1-0.4-0.3-0.3c-0.2,0.1-0.3,0-0.2-0.3c0-0.1,0-0.2,0-0.2c-0.5-0.1-1-0.5-1.5-0.6
					c-0.1,0-0.2,0.1-0.3,0.2c-0.1,0.1-0.3,0.2-0.4,0.1c-0.4-0.3-0.8,0-1.3,0c-0.4,0-0.5,0.4-0.4,0.8c0.1,0.3,0,0.3-0.1,0.4
					c-0.2,0.2-0.4,0.2-0.4,0.6c0,0.2-0.3,0.4-0.4,0.2c-0.3-0.5-0.6-0.1-0.9-0.1c-0.2,0-0.4,0.1-0.6,0.2c-0.2,0.1-0.4,0-0.5-0.2
					c-0.1-0.2,0.1-0.3,0.2-0.4c0.4-0.4,0.8-0.7,1.2-1.1c0,0,0.1-0.2,0.2,0c0.1,0.2,0.1,0.2,0.3,0.1c0.2-0.1,0.3-0.2,0.5-0.2
					c-0.1-0.2-0.3,0-0.3-0.1c0.4-1.1,1.2-1,1.9-1.1c0,0.2-0.3,0.2-0.3,0.4c0.1,0.2,0.3,0.1,0.4,0.1c0.3,0,0.6-0.1,0.8-0.2
					c0.1-0.1,0.3,0,0.4-0.3c0-0.3-0.3,0-0.3-0.3c0.7-0.1,0.7-0.1,0.9-0.3c-0.9-0.3-1.9-0.1-2.8,0c0.4-0.7,1.3-1.1,1.9-1
					c0.1,0,0.2,0,0.3,0c0.3-0.1,0.6-0.2,0.9-0.2c0.4,0,0.9-0.4,1.3,0.2c0.2,0.2,0.1,0.5,0.1,0.7c0.2,0.5,1.5,0.8,1.9,0.3
					c0.8-1,1.8-1.1,2.8-1.2c0.7-0.1,1.3-0.4,1.8-0.9c0,0,0.1,0,0.1-0.1c0.1-0.7,0.5-0.5,0.8-0.6c0.2-0.1,0.3,0.1,0.5,0
					c-0.3-0.1-0.7-0.1-1.1-0.2c-4.8,0.1-9.1,1.2-13.1,3.4c0,0,0.1,0.1,0.1,0.1c-0.1,0-0.2,0-0.3,0c0,0-0.1,0-0.1,0
					c-0.1,0.1-0.2,0.2-0.4,0.2c-0.1,0.2-0.2,0.4-0.3,0.7c0,0,0,0-0.1,0.1c0,0.3-0.3,0.3-0.4,0.5c-0.3,0.3-0.6,0.4-0.9,0c0,0,0,0,0,0
					c0,0-0.1,0.1-0.1,0.1c-0.3,0.4-0.6,0.5-1,0.7c-0.5,0.4-0.9,0.8-1.3,1.2c0,0,0.1,0,0.1,0c-0.2,0.1-0.3,0.2-0.4,0.3
					c-1.2,1.1-2.2,2.4-3.2,3.7c0.2-0.2,0.5-0.4,0.8-0.5C324.7,126.6,325.1,126.6,325.3,126.9z M332,119.9c0,0.2-0.4,0.5,0.1,0.5
					c0.1,0,0.2-0.1,0.3,0c-0.3,0.5-0.7,0.3-1.2,0.3C331.5,120.3,331.7,120.1,332,119.9z"/>
				<path class="st2" d="M338.5,130.9c-0.2,0-0.5,0.1-0.5-0.4c0-0.3-0.2-0.5-0.5-0.5c-0.4,0-0.8,0-1.2-0.2c-0.5-0.3-1-0.6-1.5-0.3
					c-0.1,0.1-0.2,0.1-0.3,0.1c-0.7-0.2-1.2,0.2-1.6,1c-0.1,0.2-0.3,0.2-0.4,0.3c0.3,0.4,0.4,0.9,0.2,1.4c-0.4,1-0.4,1.7,0.2,2.6
					c0.4,0.5,0.7,0.9,1.3,1.2c0.4,0.2,0.6,0.5,0.7,1.2c0.1,1.7,0.1,3.4,0.4,5.1c0,0.1-0.1,0.3,0.1,0.3c0.1,0,0.2,0.1,0.1,0.1
					c-0.4,0.5-0.1,1.1,0,1.5c0.3,1,0.8,1.2,1.7,0.6c-0.7-0.4-0.7-0.4-0.4-1.3c0.1-0.2,0.2-0.4,0-0.5c-0.3-0.1-0.3-0.3-0.1-0.6
					c0.1-0.1,0.1-0.3,0.1-0.4c-0.2-0.4,0-0.6,0.2-1c0.1-0.2,0.3-0.4,0.5-0.5c0.2-0.1,0.4-0.2,0.3-0.4c-0.2-0.6,0.1-0.7,0.4-0.9
					c0.1-0.1,0.2-0.3,0.2-0.5c0.1-0.5,0.3-1,0.4-1.5c0.1-0.7,0.5-1.1,0.9-1.3c0.2-0.1,0.3-0.2,0.4-0.5c0.4-1.1,0.2-2.3,0.9-3.3
					c0.2-0.2,0-0.6-0.2-0.7C340.1,131.2,339.4,130.9,338.5,130.9z"/>
				<path class="st2" d="M366.8,141.8c-0.1,0-0.2-0.2-0.2-0.3c0-0.1,0-0.3,0.1-0.4c0.2-0.3,0-0.5-0.2-0.7c-0.2-0.2-0.3,0-0.4,0.1
					c0,0-0.1,0.2-0.1,0.1c-0.2-0.6-0.4-0.1-0.5,0c-0.3,0.2-0.6,0.4-0.9,0.4c-0.2,0-0.4,0.2-0.5,0.5c-0.1,0.6-0.1,1.3-0.4,1.9
					c-0.1,0.2,0,0.4,0.2,0.4c0.3,0,0.5,0.2,0.8,0.1c0.2,0,0.5,0,0.5,0.3c0,0.5,0.2,0.9,0.2,1.4c0,0.4,0.4,0.9,0.6,0.6
					c0.5-0.5,1-1.2,1.1-2.1c0-1.1,0-2.1,0.1-3.2c-0.2,0.1-0.2,0.4-0.3,0.6C367,141.7,367,141.9,366.8,141.8z"/>
				<path class="st2" d="M356,135.1c-0.1,0-0.2,0.1-0.2,0.3c0,0.4-0.1,0.7-0.2,1.1c0,0.2-0.1,0.7,0.2,0.8c0.3,0.1,0.4-0.2,0.5-0.5
					c0.2-0.4,0.3-0.9,0.5-1.3c0.2-0.3,0.2-0.6,0-1C356.5,134.9,356.3,135.1,356,135.1z"/>
				<path class="st2" d="M365.4,137.6c0.3-0.4,0.4-1,0.6-1.5c0-0.1,0-0.2-0.1-0.3c-0.1-0.2-0.1,0-0.2,0c-0.1,0.1-0.3,0.1-0.4,0.2
					c-0.2,0.1-0.5-0.1-0.4,0.4c0,0.3,0,0.6,0.2,0.8C365.1,137.3,365.3,137.4,365.4,137.6z"/>
				<path class="st2" d="M367.8,140.4c0-0.5-0.1-1-0.4-1.3c-0.3-0.2-0.3-0.7-0.6-0.9c0.1,0.4,0,0.7,0.2,1c0.1,0.2,0.2,0.5,0.1,0.8
					c-0.1,0.3,0,0.6,0.3,0.5c0.2-0.1,0.2,0.1,0.3,0.3c0,0.2-0.1,0.4,0.2,0.6C367.8,141,367.8,140.7,367.8,140.4z"/>
				<path class="st2" d="M347.3,119.8L347.3,119.8C347.3,119.8,347.3,119.8,347.3,119.8c0.1,0,0.2,0.1,0.3,0.1
					c0,0.2-0.3,0.3-0.2,0.6c0.4-0.1,0.8,0.1,1.2-0.1c-0.3-0.4-0.6-0.4-0.8-0.9c-0.1-0.2-0.3-0.3-0.5-0.1
					C347.1,119.4,347.2,119.6,347.3,119.8C347.3,119.8,347.3,119.8,347.3,119.8C347.3,119.8,347.3,119.8,347.3,119.8L347.3,119.8z"
					/>
				<path class="st2" d="M352.8,117.5c-0.4-0.1-0.7-0.2-1.1-0.3c-0.4-0.1-0.8-0.1-1.2-0.2C351.3,117.6,352.1,117.5,352.8,117.5z"/>
				<path class="st2" d="M343.9,118.2c0.5,0.4,1.2,0.4,1.8,0C345.1,118.1,344.5,118.3,343.9,118.2z"/>
				<path class="st2" d="M368.2,131.7c-0.1,0.5-0.4,0.3-0.6,0.2c-0.1,0-0.2,0-0.2,0.2c0,0.1,0,0.4,0.2,0.3c0.1-0.1,0.2,0.1,0.3,0.1
					c0.1,0,0.2,0.1,0.3,0c0-0.2,0.2-0.4,0.1-0.6C368.3,131.7,368.2,131.6,368.2,131.7z"/>
				<path class="st2" d="M358,120c0.1-0.2,0.4,0.2,0.6,0c-0.6-0.3-0.9-0.4-1.4-0.1C357.5,120,357.7,120.4,358,120z"/>
				<path class="st2" d="M347.3,119.8c-0.4-0.1-0.7-0.2-1,0.4C346.8,120.2,347.1,120.2,347.3,119.8z"/>
				<path class="st2" d="M333.2,128.1c-0.5-0.1-1-0.2-1.4,0.1C332.3,128,332.7,128.5,333.2,128.1z"/>
				<path class="st2" d="M365.8,137.3c-0.2,0.4-0.3,0.8,0.2,1.1C365.9,138,366.3,137.6,365.8,137.3z"/>
				<path class="st2" d="M330.2,121c0.3,0.1,0.4-0.2,0.6-0.2c0-0.1-0.1-0.2-0.1-0.3c0-0.1,0.1-0.1,0.1-0.2c-0.1,0.1-0.3,0.2-0.4,0.3
					C330.4,120.7,330.2,120.8,330.2,121z"/>
				<path class="st2" d="M330.9,120.8C330.9,120.8,330.9,120.8,330.9,120.8C330.9,120.8,330.9,120.8,330.9,120.8
					C330.9,120.8,330.9,120.8,330.9,120.8z"/>
				<path class="st2" d="M364.3,137.3c0.1,0.5,0.5,0.8,0.9,1.2C365,137.8,364.6,137.7,364.3,137.3z"/>
				<path class="st2" d="M333.8,128.3c0.2-0.1,0.3-0.2,0.6-0.4c-0.3,0-0.5-0.1-0.7,0c-0.1,0.1-0.2,0-0.2,0.2
					C333.6,128.4,333.7,128.4,333.8,128.3z"/>
				<path class="st2" d="M366.7,134.9c-0.4-0.3,0.1-0.8-0.2-1.1C366.2,134.5,366.3,134.8,366.7,134.9z"/>
				<path class="st2" d="M366.5,148.6c-0.1,0,0,0.2,0,0.3c0,0.1,0.1,0,0.2,0c0.2-0.2,0.4-0.4,0.6-0.6
					C367,148.1,366.8,148.4,366.5,148.6z"/>
			</g>
		</g>
		<polygon class="st1" points="375.4,145.5 375.4,170.7 382.9,170.7 		"/>
		<polygon class="st1" points="383.5,140.2 383.5,115.2 375.4,115.2 		"/>
		<path class="st1" d="M395.5,115.2h24v11.1h-9.6v10.5h9v10.5h-9v12.2h10.6v11.1h-25V115.2z"/>
	</g>
	<path class="st2" d="M109.9,143.4c0,4.1-0.5,6.6-1.5,7.7c-1,1-3.4,1.6-7.1,1.7v-28.2c3.9,0.1,6.3,0.6,7.2,1.5
		c0.9,0.9,1.4,3.6,1.4,7.9V143.4z"/>
</g>
</svg>
