<?xml version="1.0" encoding="utf-8"?>
<!-- Generator: Adobe Illustrator 25.4.1, SVG Export Plug-In . SVG Version: 6.00 Build 0)  -->
<svg version="1.1" id="Layer_1" xmlns="http://www.w3.org/2000/svg" xmlns:xlink="http://www.w3.org/1999/xlink" x="0px" y="0px"
	 viewBox="0 0 595.28 841.89" style="enable-background:new 0 0 595.28 841.89;" xml:space="preserve">
<style type="text/css">
	.st0{fill:url(#SVGID_1_);}
	.st1{fill:#FFC20E;}
	.st2{fill:url(#SVGID_00000058580231107435889340000000260643361079345058_);}
	.st3{fill:url(#SVGID_00000006666437113157686630000014693879401221950888_);}
	.st4{fill:none;}
</style>
<g>
	<path d="M-139.04,389.42c5.6,3.4,17.2,7.4,26.19,7.4c9.2,0,13-3.2,13-8.2c0-5-3-7.4-14.4-11.2c-20.19-6.8-27.99-17.79-27.79-29.39
		c0-18.2,15.6-31.99,39.79-31.99c11.4,0,21.59,2.6,27.59,5.6l-5.4,20.99c-4.4-2.4-12.8-5.6-21.19-5.6c-7.4,0-11.6,3-11.6,8
		c0,4.6,3.8,7,15.8,11.2c18.6,6.4,26.39,15.8,26.59,30.19c0,18.2-14.4,31.59-42.39,31.59c-12.8,0-24.19-2.8-31.59-6.8
		L-139.04,389.42z"/>
	<g>
		<linearGradient id="SVGID_1_" gradientUnits="userSpaceOnUse" x1="-394.5593" y1="155.9575" x2="-237.4449" y2="169.9415">
			<stop  offset="0" style="stop-color:#FFFFFF"/>
			<stop  offset="0.0422" style="stop-color:#F0F0F1"/>
			<stop  offset="0.3055" style="stop-color:#AAACAE"/>
			<stop  offset="0.5381" style="stop-color:#77797B"/>
			<stop  offset="0.7315" style="stop-color:#4F5052"/>
			<stop  offset="0.8784" style="stop-color:#252425"/>
			<stop  offset="0.9615" style="stop-color:#000000"/>
		</linearGradient>
		<path class="st0" d="M-275.91,151.01c-6.84,2.77-13.61,5.73-20.22,9.03c-0.86,0.42-5.06,2.74-3.83,6.38l-0.91,0.31
			c-1.15-3.41,1.61-6.2,4.31-7.54c6.41-3.2,12.96-6.08,19.58-8.77c-4.62-2.49-9.39-4.43-14.16-5.7l0.24-0.93
			c5.08,1.35,10.15,3.45,15.05,6.16c2.07-0.84,4.15-1.65,6.23-2.44c-0.79-3.02-2.69-5.51-5.64-7.34
			c-7.01-4.34-14.42-7.23-22.13-8.92l5.19,12.11c0.25-0.08,0.5-0.14,0.75-0.22l0.3,0.91c-2.04,0.68-4.12,1.24-6.22,1.69
			c-3.42,0.73-6.91,1.14-10.43,1.24l-0.03-0.96c5.01-0.14,9.94-0.97,14.71-2.4l-5.4-12.61c-4.86-0.99-9.82-1.52-14.9-1.58
			c-0.73,0.8-1.29,2.01-1.85,3.31c-0.39,0.91-0.79,1.84-1.28,2.64c-2.64,4.37-7.39,4.38-11.97,4.38c-1.88,0-3.83,0-5.58,0.31
			c-0.13,0.02-0.26,0.05-0.39,0.08c-6.24,1.33-11.32,7.71-12.43,15.68l-0.95-0.13c1.16-8.37,6.55-15.08,13.18-16.49
			c0.14-0.03,0.28-0.06,0.42-0.08c1.83-0.33,3.82-0.33,5.75-0.33c4.52-0.01,8.79-0.01,11.15-3.92c0.45-0.74,0.84-1.65,1.22-2.52
			c0.44-1.03,0.9-2.07,1.47-2.92c-1.22,0-2.44-0.01-3.67,0.04c-22.76,0.95-42.64,9.37-59.88,24.05
			c-8.63,7.35-15.88,15.94-21.69,26.4c12.85,6.16,25.69,10.68,39.13,12.77c4.37-3.19,8.23-7.45,11.3-12.48
			c-0.32-0.11-0.66-0.18-0.97-0.34c-1.27-0.65-2.37-1.71-3.43-2.72l-12.52-11.95l0.66-0.69l12.52,11.95
			c1.01,0.97,2.06,1.97,3.21,2.56c0.34,0.18,0.71,0.25,1.07,0.37c0.02-0.04,0.05-0.07,0.07-0.11l0.56,0.33
			c0.71,0.16,1.43,0.27,2.17,0.34c14.32,1.42,28.4-0.04,41.83-4.32l0.29,0.92c-3.27,1.04-6.59,1.92-9.93,2.63
			c-10.5,2.23-21.32,2.81-32.28,1.73c-0.78-0.08-1.56-0.19-2.31-0.36c-2.97,4.92-6.69,9.11-10.9,12.35
			c1.64,0.23,3.29,0.45,4.95,0.61c21.35,2.06,42.1,0.37,61.11-10.12c-2.83-5.71-12.08-12.64-16.59-14.86l-9.64-4.75
			c-4.15-2.04-8.44-4.15-12.76-4.47c-3.71-0.28-7.39,0.79-10.95,1.83c-4.49,1.32-9.13,2.67-13.95,1.35c-1.51-0.41-3-1.08-4.44-1.73
			c-1.25-0.56-2.54-1.14-3.82-1.54c-7.98-2.47-15.51,1.86-23.16,6.91l-0.53-0.8c7.86-5.18,15.61-9.62,23.97-7.03
			c1.34,0.41,2.66,1.01,3.93,1.58c1.41,0.64,2.86,1.29,4.3,1.68c4.56,1.24,8.87-0.02,13.43-1.35c3.64-1.06,7.39-2.16,11.29-1.86
			c4.5,0.34,8.88,2.49,13.11,4.57l9.64,4.75c4.71,2.32,14.02,9.24,17.04,15.21c0.87-0.49,1.73-0.98,2.59-1.5
			c10.15-6.26,17.96-14.38,20.22-26.47C-271.73,153.49-273.8,152.19-275.91,151.01z M-360.85,142.78c-2.95,1.22-5.98,4.65-5.69,9.33
			l-0.96,0.06c-0.32-5.15,3.03-8.94,6.28-10.28c2.93-1.21,6.16-1.12,9.28-1.03c0.58,0.02,1.16,0.03,1.74,0.04
			c3.38,0.05,7.22-0.25,9.95-2.84l0.66,0.7c-2.98,2.83-7.05,3.15-10.62,3.11c-0.58-0.01-1.17-0.02-1.75-0.04
			C-354.98,141.74-358.1,141.66-360.85,142.78z M-310.91,150.86l-3.36,7.32l-0.87-0.4l3.36-7.32c0.36-0.77,0.66-1.52,0.52-2.3
			c-0.12-0.68-0.57-1.27-1.09-1.9l-6.16-7.43l0.74-0.61l6.16,7.43c0.47,0.57,1.12,1.35,1.3,2.35
			C-310.13,149.04-310.5,149.98-310.91,150.86z"/>
		<path d="M-309.55,167.67l-9.64-4.75c-4.23-2.08-8.6-4.23-13.11-4.57c-3.89-0.29-7.65,0.8-11.29,1.86
			c-4.56,1.33-8.87,2.59-13.43,1.35c-1.44-0.39-2.9-1.05-4.3-1.68c-1.28-0.58-2.6-1.17-3.93-1.58c-8.37-2.59-16.12,1.85-23.97,7.03
			l0.53,0.8c7.66-5.05,15.19-9.38,23.16-6.91c1.28,0.4,2.57,0.98,3.82,1.54c1.44,0.65,2.93,1.32,4.44,1.73
			c4.82,1.32,9.47-0.03,13.95-1.35c3.55-1.04,7.23-2.11,10.95-1.83c4.32,0.32,8.61,2.43,12.76,4.47l9.64,4.75
			c4.51,2.22,13.76,9.14,16.59,14.86c0.29-0.16,0.59-0.34,0.88-0.51C-295.53,176.91-304.84,169.99-309.55,167.67z"/>
		<path d="M-346.23,180.9c10.96,1.08,21.78,0.5,32.28-1.73c3.34-0.71,6.66-1.59,9.93-2.63l-0.29-0.92
			c-13.43,4.29-27.51,5.74-41.83,4.32c-0.74-0.07-1.47-0.17-2.17-0.34l-0.56-0.33c-0.02,0.04-0.05,0.07-0.07,0.11
			c-0.36-0.11-0.73-0.19-1.07-0.37c-1.15-0.59-2.2-1.59-3.21-2.56l-12.52-11.95l-0.66,0.69l12.52,11.95
			c1.06,1.02,2.16,2.07,3.43,2.72c0.32,0.16,0.65,0.23,0.97,0.34c-3.07,5.03-6.93,9.29-11.3,12.48c0.44,0.07,0.89,0.12,1.33,0.19
			c4.2-3.24,7.93-7.43,10.9-12.35C-347.79,180.72-347.02,180.83-346.23,180.9z"/>
		<path d="M-274.77,150.54c1.78-0.71,3.57-1.4,5.35-2.09c-0.06-0.32-0.11-0.64-0.2-0.95c-2.08,0.8-4.16,1.61-6.23,2.44
			c-4.9-2.71-9.97-4.8-15.05-6.16l-0.24,0.93c4.77,1.27,9.54,3.21,14.16,5.7c-6.61,2.69-13.17,5.57-19.58,8.77
			c-2.71,1.35-5.46,4.13-4.31,7.54l0.91-0.31c-1.23-3.64,2.98-5.96,3.83-6.38c6.62-3.3,13.39-6.27,20.22-9.03
			c2.11,1.18,4.18,2.48,6.2,3.89c0.06-0.34,0.15-0.67,0.2-1.02C-271.23,152.69-272.99,151.57-274.77,150.54z"/>
	</g>
	<path d="M-317.78,138.21l-0.74,0.61l6.16,7.43c0.52,0.64,0.97,1.22,1.09,1.9c0.14,0.78-0.16,1.54-0.52,2.3l-3.36,7.32l0.87,0.4
		l3.36-7.32c0.4-0.87,0.78-1.82,0.59-2.87c-0.18-0.99-0.82-1.77-1.3-2.35L-317.78,138.21z"/>
	<path d="M-490.24,288.45c1.58,0.07,3.01,0.19,4.43,0.19c16.37,0.01,32.75,0.14,49.11-0.06c5.39-0.07,10.77-1.21,16.17-1.4
		c2.91-0.1,5.92,0.51,8.76,1.24c7.23,1.86,14.31,4.39,21.61,5.87c11.69,2.37,23.07,0.83,33.9-4.32c1.53-0.73,3.14-1.28,4.97-1.45
		c-4.4,7.52-10.63,13.02-17.73,17.89c5.91,3.48,11.71,6.5,17.11,10.14c15.14,10.21,23.2,24.57,25.29,42.76
		c1.62,14.05,0.02,27.47-6.04,40.13c-7.52,15.72-20.15,26.24-35.99,33c-15.36,6.55-31.52,9.51-48.14,9.58
		c-40.2,0.16-80.39,0.08-120.59,0.09c-1.84,0-3.68,0-5.8,0c0-86.65,0-172.95,0-259.49c5.55,0,10.93,0,16.65,0
		c-0.26,3.85-0.48,7.61-0.76,11.36c-0.82,11.14,7.54,20.77,17.41,23.59c13.73,3.92,27.52,4.55,41.44,1.12
		c0.98-0.24,2.02-0.24,3-0.34c0.97,4.2,1.88,8.12,2.89,12.52c-9.29,0-18.38,0-27.72,0C-490.24,250.24-490.24,269.17-490.24,288.45z
		 M-490.39,394.11c1.82,0,3.25,0,4.69,0c20.23,0,40.46,0.12,60.69-0.07c6.32-0.06,12.73-0.46,18.92-1.64
		c14.52-2.76,25.93-9.99,27.02-25.76c0.62-9.01-1.7-16.98-9.25-22.79c-7.88-6.07-17.13-8.51-26.68-8.73
		c-23.54-0.54-47.1-0.41-70.65-0.53c-1.55-0.01-3.1,0.22-4.74,0.35C-490.39,354.68-490.39,374.09-490.39,394.11z"/>
	<path d="M-513.68,59.17c-10.08,9.6-21.57,3.08-25.37-7.47c-1.18-3.28,2.35-6.96,6.84-7.54c8.3-1.09,14.62,2.22,18.69,9.68
		c0.47,0.86,1.21,1.94,2.05,2.19c14.71,4.47,25.1,14.44,33.08,26.91c4.71,7.37,8.1,15.6,12.08,23.43c0.28,0.56,0.64,1.08,1.58,2.67
		c-1.8-18.06-3.48-34.96-5.17-51.94c-1.69-0.56-3.37-0.94-4.89-1.65c-5.93-2.79-8.49-9.87-5.79-16.55c0.54-1.33,3.2-2.75,4.71-2.58
		c4.97,0.55,8.32,3.7,10.01,8.38c1.43,3.97,1.96,7.9-1.34,11.45c-0.52,0.56-0.38,1.99-0.18,2.94c2.89,14,6.52,27.89,8.57,42.01
		c1.72,11.77,1.62,23.81,2.36,36.36c3.19,0.72,7.15,1.47,11.03,2.51c10.26,2.77,15.57,9.84,15.77,20.24
		c0.54,28.06-19.29,49.75-45.75,53.38c-10.34,1.42-20.55,1.07-30.67-1.5c-13.44-3.41-16.31-12.7-14.56-23.79
		c4.04-25.55,27.6-44.81,50.84-49.04c2.78-0.51,3.34-1.94,3.28-4.41c-0.41-15.72-5.25-30.09-13.81-43.12
		C-488.97,78.55-500.16,67.82-513.68,59.17z"/>
	<path class="st1" d="M-374.88,188.66c5.37,4.81,9.9,9.27,14.85,13.18c4.85,3.83,4.25,8.94,3.56,13.75
		c-2.33,16.31-9.47,30.31-21.55,41.63c-10.71,10.03-23.42,16.38-37.58,19.87c-1.15,0.28-2.79-0.38-3.88-1.1
		c-10.37-6.88-18.93-15.61-26.37-26.07C-408.17,246.22-383.59,227.26-374.88,188.66z"/>
	<path class="st1" d="M-422.58,173.69c7.06,1.2,15.06,2.51,23.01,4.02c0.64,0.12,1.52,1.74,1.42,2.56
		c-3.67,28.4-24.63,51.05-51.98,56.58c-2.37,0.48-3.41,0.11-4.02-2.15c-1.44-5.31-2.77-10.67-4.57-15.86
		c-0.94-2.71,0.28-3.49,2.27-4.36c11.32-4.91,20.87-12.08,26.86-23.03C-426.81,186.38-425.26,180.62-422.58,173.69z"/>
	<path d="M-348.34,217.68c6.29,10.91,10.35,22.41,8.91,35.25c-0.38,3.37-0.75,6.8-1.74,10.02c-1.31,4.24,1.78,6.52,3.54,9.34
		c4.16,6.67,8.56,13.18,12.41,20.44c-4.27-1.79-8.54-3.56-12.8-5.36c-4.23-1.79-8.38-3.8-12.7-5.34c-1.36-0.48-3.41-0.21-4.7,0.51
		c-14.05,7.82-28.68,7.76-43.66,3.51c-0.35-0.1-0.61-0.49-1.03-0.84C-369.54,272.83-350.41,251.93-348.34,217.68z"/>
	<path class="st1" d="M-490.39,394.11c0-20.03,0-39.43,0-59.17c1.64-0.13,3.19-0.36,4.74-0.35c23.55,0.11,47.11-0.01,70.65,0.53
		c9.55,0.22,18.8,2.66,26.68,8.73c7.55,5.81,9.87,13.78,9.25,22.79c-1.09,15.77-12.5,23-27.02,25.76
		c-6.19,1.17-12.6,1.58-18.92,1.64c-20.23,0.2-40.46,0.07-60.69,0.07C-487.14,394.11-488.57,394.11-490.39,394.11z"/>
	<path d="M-283.82,386.91c10.69,6.74,22.91,0.39,31.41-10.98c6.22-8.33,10.12-15.9,12.95-24.02l18.89,9.12
		c-2.78,10.4-8.48,21.37-16.37,31.95c-19.86,26.59-46.6,30.33-71.12,12.02c-19.87-14.84-32.6-43.56-12.26-70.8
		c18.9-25.31,45.79-20.21,65.17-5.73c4.16,3.11,7.49,6.34,9.01,7.98L-283.82,386.91z M-279.07,345.79
		c-5.93-4.43-17.77-9.28-26.15,1.93c-7.66,10.25-1.47,21.36,4.61,26.9L-279.07,345.79z"/>
	<path d="M-212.73,376.83c1,12.6,13.4,18.6,27.59,18.6c10.4,0,18.8-1.4,26.99-4l4,20.59c-10,4-22.2,6-35.39,6
		c-33.19,0-52.19-19.19-52.19-49.79c0-24.79,15.4-52.19,49.39-52.19c31.59,0,43.59,24.6,43.59,48.79c0,5.2-0.6,9.8-1,12H-212.73z
		 M-176.94,356.03c0-7.4-3.2-19.79-17.2-19.79c-12.8,0-17.99,11.6-18.79,19.79H-176.94z"/>
	<path class="st1" d="M-279.07,345.79c-5.93-4.43-17.77-9.28-26.15,1.93c-7.66,10.25-1.47,21.36,4.61,26.9L-279.07,345.79z"/>
	<path class="st1" d="M-176.94,356.03c0-7.4-3.2-19.79-17.2-19.79c-12.8,0-17.99,11.6-18.79,19.79H-176.94z"/>
	
		<linearGradient id="SVGID_00000150060781321620211300000012966177767404785299_" gradientUnits="userSpaceOnUse" x1="-336.2271" y1="188.013" x2="-372.421" y2="80.2539">
		<stop  offset="0" style="stop-color:#FFFFFF"/>
		<stop  offset="1" style="stop-color:#000000"/>
	</linearGradient>
	<path style="fill:url(#SVGID_00000150060781321620211300000012966177767404785299_);" d="M-399.9,179.97
		c-1.74-11.84-1.2-23.07,1.19-34.15c4.78-22.12,15.45-40.89,32.96-55.47c11.82-9.85,25.29-16.17,40.72-17.69
		c5.39-0.53,9.73,1.76,12.52,6.61c6.62,11.52,5.35,23.31,0.86,35.04c-8.38,21.87-24.61,36.84-43.93,48.86
		C-369.03,171.53-383.79,176.6-399.9,179.97z"/>
	
		<linearGradient id="SVGID_00000181776178176350898420000007024834027569335686_" gradientUnits="userSpaceOnUse" x1="-352.4789" y1="43.8849" x2="-198.0487" y2="155.5632" gradientTransform="matrix(0.9782 -0.2077 0.2077 0.9782 -94.9536 -36.3417)">
		<stop  offset="0" style="stop-color:#FFFFFF"/>
		<stop  offset="1" style="stop-color:#000000"/>
	</linearGradient>
	<path style="fill:url(#SVGID_00000181776178176350898420000007024834027569335686_);" d="M-269.5,153.88
		c0.05-0.3,0.13-0.56,0.17-0.86c0.21-1.62,0.16-3.14-0.1-4.56c-1.79,0.69-3.57,1.37-5.35,2.09
		C-272.99,151.57-271.23,152.69-269.5,153.88z"/>
	<path d="M-307.82,146.02l0.03,0.96c3.52-0.1,7.01-0.52,10.43-1.24c2.1-0.45,4.18-1.01,6.22-1.69l-0.3-0.91
		c-0.25,0.08-0.5,0.14-0.75,0.22l-5.19-12.11c-0.38-0.08-0.76-0.15-1.14-0.23l5.4,12.61C-297.88,145.04-302.81,145.87-307.82,146.02
		z"/>
	<path d="M-317.36,134.89c-2.37,3.91-6.64,3.91-11.15,3.92c-1.92,0-3.92,0-5.75,0.33c-0.14,0.02-0.28,0.05-0.42,0.08
		c-6.63,1.41-12.02,8.12-13.18,16.49l0.95,0.13c1.1-7.97,6.19-14.36,12.43-15.68c0.13-0.03,0.26-0.05,0.39-0.08
		c1.75-0.31,3.7-0.31,5.58-0.31c4.59-0.01,9.33-0.01,11.97-4.38c0.48-0.8,0.89-1.74,1.28-2.64c0.56-1.3,1.12-2.51,1.85-3.31
		c-0.42-0.01-0.84,0.01-1.26,0.01c-0.57,0.85-1.02,1.89-1.47,2.92C-316.52,133.24-316.91,134.15-317.36,134.89z"/>
	<g>
		<g>
			<path class="st4" d="M-312.06,80.21c-2.9,8.69-6.18,16.75-13.82,20.32c-1.24,0.58-2.57,1.02-3.85,1.44
				c-1.42,0.47-2.89,0.95-4.2,1.62c-4.15,2.1-6.67,5.83-9.34,9.77c-2.12,3.13-4.31,6.37-7.39,8.7c-3.58,2.71-8.09,4.03-12.45,5.3
				l-9.96,2.92c-0.59,0.17-1.27,0.34-2.02,0.5c-5.32,1.13-14.13,1.76-19.19-0.11c-1.81,4.86-3.3,9.9-4.43,15.15
				c-2.39,11.08-2.94,22.31-1.19,34.15c0.76-0.16,1.51-0.34,2.27-0.51c2.79-4.68,5.55-9.41,8.2-14.2c-0.29,0.07-0.58,0.15-0.88,0.21
				c-3.41,0.72-6.91,1.21-10.44,1.45l-0.06-0.91c4.08-0.27,8.09-0.95,11.99-1.88c3.54-6.44,6.92-12.97,9.99-19.64
				c0.4-0.87,2.23-5.27-0.75-7.05l0.47-0.78c2.83,1.69,2.43,5.35,1.11,8.22c-2.97,6.45-6.23,12.77-9.64,19
				c4.87-1.25,9.53-2.95,13.82-5.15l0.42,0.81c-4.58,2.36-9.6,4.16-14.83,5.43c-2.65,4.8-5.38,9.53-8.17,14.22
				c14.75-3.36,28.35-8.26,40.81-16.02c19.32-12.02,35.56-26.99,43.93-48.86C-307.29,102.9-306.03,91.43-312.06,80.21z
				 M-359.7,164.03l-0.4,0.82l-12.09-5.86c-0.15,0.23-0.31,0.44-0.45,0.67l-0.77-0.49c3.01-4.78,6.64-9.15,10.82-12.98l0.62,0.67
				c-3.68,3.38-6.92,7.21-9.69,11.35L-359.7,164.03z M-361.25,143.81c-0.76-0.64-1.02-1.56-1.22-2.46l-1.66-7.42l0.89-0.2l1.67,7.42
				c0.17,0.77,0.37,1.51,0.91,1.96c0.48,0.41,1.14,0.53,1.88,0.63l8.88,1.27l-0.13,0.9l-8.88-1.27
				C-359.76,144.53-360.59,144.37-361.25,143.81z M-338.2,134.49c-1.19,1.43-2.67,2.73-4.11,3.98c-3.41,2.98-6.62,5.78-6.16,10.14
				c0.09,0.83,0.31,1.73,0.53,2.6c0.55,2.18,1.11,4.44-0.28,6.03l-0.69-0.6c1.07-1.23,0.59-3.17,0.08-5.21
				c-0.22-0.9-0.46-1.84-0.55-2.72c-0.52-4.83,3.03-7.93,6.46-10.93c1.41-1.23,2.87-2.51,4.01-3.88c4.17-5.03,4.43-13.11,0.62-19.66
				l0.79-0.46C-333.49,120.66-333.78,129.17-338.2,134.49z M-319.55,114.91c-1.5,2.77-3.97,4.8-6.35,6.77
				c-0.45,0.37-0.9,0.74-1.34,1.11c-2.58,2.19-5.3,4.93-5.86,8.58l-0.9-0.14c0.61-3.94,3.46-6.83,6.17-9.13
				c0.44-0.38,0.9-0.75,1.35-1.12c2.32-1.91,4.71-3.89,6.13-6.5c1.52-2.8,1.84-7.25-1.05-10.39l0.67-0.62
				C-317.54,106.94-317.88,111.83-319.55,114.91z"/>
			<path class="st4" d="M-373.32,129.4l9.96-2.92c4.28-1.25,8.71-2.55,12.15-5.16c2.96-2.24,5.1-5.41,7.18-8.48
				c2.62-3.87,5.32-7.87,9.68-10.08c1.37-0.7,2.87-1.19,4.32-1.67c1.26-0.41,2.56-0.84,3.75-1.4c7.42-3.47,10.6-11.5,13.46-20.13
				l0.53,0.17c-0.09-0.16-0.14-0.32-0.24-0.48c-2.78-4.85-7.13-7.14-12.52-6.61c-8.63,0.85-16.64,3.26-24.1,6.89
				c-1.31,4.95-1.73,10.28-1.18,15.64c0.3-0.12,0.57-0.29,0.88-0.38c1.33-0.36,2.76-0.33,4.14-0.3l16.24,0.35l-0.02,0.91
				l-16.24-0.35c-1.32-0.03-2.69-0.06-3.88,0.27c-0.38,0.1-0.71,0.29-1.05,0.45c0.01,0.05,0,0.1,0.01,0.16l-0.53,0.07
				c-0.63,0.34-1.24,0.75-1.87,1.2c-11.56,8.36-21.29,18.61-28.94,30.46l-0.77-0.49c7.71-11.95,17.52-22.29,29.17-30.71
				c0.64-0.46,1.29-0.89,1.97-1.27c-0.57-5.29-0.22-10.56,0.98-15.49c-5.47,2.77-10.65,6.2-15.53,10.27
				c-13.11,10.92-22.39,24.19-28.23,39.46C-388.49,131.85-377.88,130.72-373.32,129.4z"/>
			<path d="M-373.06,130.28l9.96-2.92c4.36-1.27,8.87-2.6,12.45-5.3c3.08-2.33,5.27-5.56,7.39-8.7c2.67-3.94,5.19-7.67,9.34-9.77
				c1.31-0.66,2.78-1.15,4.2-1.62c1.29-0.42,2.62-0.86,3.85-1.44c7.65-3.57,10.93-11.63,13.82-20.32c-0.08-0.15-0.14-0.31-0.22-0.46
				l-0.53-0.17c-2.86,8.63-6.04,16.66-13.46,20.13c-1.19,0.55-2.49,0.98-3.75,1.4c-1.45,0.48-2.95,0.97-4.32,1.67
				c-4.36,2.21-7.07,6.21-9.68,10.08c-2.08,3.07-4.23,6.24-7.18,8.48c-3.45,2.6-7.87,3.9-12.15,5.16l-9.96,2.92
				c-4.56,1.32-15.17,2.45-20.66,0.41c-0.11,0.28-0.19,0.57-0.29,0.86c5.06,1.87,13.86,1.24,19.19,0.11
				C-374.34,130.62-373.65,130.45-373.06,130.28z"/>
			<path d="M-351.2,95.57c-0.68,0.37-1.33,0.8-1.97,1.27c-11.65,8.42-21.47,18.76-29.17,30.71l0.77,0.49
				c7.65-11.85,17.38-22.11,28.94-30.46c0.63-0.46,1.25-0.86,1.87-1.2l-0.38,0.05C-351.18,96.14-351.17,95.86-351.2,95.57z"/>
			<path d="M-349.19,95.7c1.19-0.33,2.56-0.3,3.88-0.27l16.24,0.35l0.02-0.91l-16.24-0.35c-1.38-0.03-2.81-0.06-4.14,0.3
				c-0.32,0.09-0.59,0.25-0.88,0.38c0.03,0.32,0.03,0.64,0.07,0.96C-349.9,95.99-349.56,95.8-349.19,95.7z"/>
			<path d="M-351.14,96.42l0.38-0.05l0.53-0.07c-0.01-0.05,0-0.1-0.01-0.16c-0.04-0.32-0.04-0.64-0.07-0.96
				c-0.55-5.36-0.13-10.69,1.18-15.64c-0.36,0.18-0.73,0.35-1.08,0.53c-1.2,4.93-1.56,10.2-0.98,15.49
				C-351.17,95.86-351.18,96.14-351.14,96.42z"/>
			<path d="M-377.99,144.86c1.32-2.86,1.72-6.53-1.11-8.22l-0.47,0.78c2.98,1.78,1.15,6.19,0.75,7.05
				c-3.07,6.67-6.45,13.2-9.99,19.64c0.39-0.09,0.79-0.16,1.18-0.26C-384.22,157.64-380.96,151.31-377.99,144.86z"/>
			<path d="M-389.43,165.25c-2.66,4.79-5.41,9.52-8.2,14.2c0.41-0.09,0.82-0.18,1.23-0.28c2.79-4.68,5.52-9.42,8.17-14.22
				C-388.63,165.06-389.02,165.16-389.43,165.25z"/>
			<path d="M-373.4,159.53l-0.42-0.81c-4.28,2.2-8.95,3.91-13.82,5.15c-0.39,0.1-0.79,0.16-1.18,0.26
				c-3.9,0.93-7.91,1.61-11.99,1.88l0.06,0.91c3.54-0.24,7.03-0.72,10.44-1.45c0.3-0.06,0.58-0.15,0.88-0.21
				c0.4-0.09,0.8-0.2,1.2-0.29C-383,163.69-377.98,161.88-373.4,159.53z"/>
			<path d="M-360.1,164.85l0.4-0.82l-11.97-5.8c-0.17,0.26-0.35,0.51-0.52,0.77L-360.1,164.85z"/>
			<path d="M-362.6,146.2c-4.17,3.83-7.81,8.19-10.82,12.98l0.77,0.49c0.14-0.23,0.31-0.44,0.45-0.67c0.17-0.26,0.35-0.51,0.52-0.77
				c2.77-4.15,6-7.97,9.69-11.35L-362.6,146.2z"/>
			<path d="M-349.9,145.02l-8.88-1.27c-0.75-0.11-1.4-0.23-1.88-0.63c-0.54-0.45-0.74-1.18-0.91-1.96l-1.67-7.42l-0.89,0.2
				l1.66,7.42c0.2,0.9,0.46,1.82,1.22,2.46c0.66,0.56,1.48,0.72,2.34,0.84l8.88,1.27L-349.9,145.02z"/>
			<path d="M-337.49,113.79l-0.79,0.46c3.81,6.55,3.56,14.63-0.62,19.66c-1.14,1.37-2.6,2.65-4.01,3.88
				c-3.43,2.99-6.98,6.09-6.46,10.93c0.1,0.89,0.33,1.82,0.55,2.72c0.51,2.04,1,3.98-0.08,5.21l0.69,0.6
				c1.39-1.59,0.82-3.85,0.28-6.03c-0.22-0.87-0.44-1.78-0.53-2.6c-0.46-4.36,2.75-7.16,6.16-10.14c1.44-1.26,2.93-2.56,4.11-3.98
				C-333.78,129.17-333.49,120.66-337.49,113.79z"/>
			<path d="M-321.41,104.09c2.89,3.14,2.57,7.58,1.05,10.39c-1.42,2.61-3.81,4.59-6.13,6.5c-0.45,0.37-0.9,0.75-1.35,1.12
				c-2.71,2.3-5.56,5.19-6.17,9.13l0.9,0.14c0.57-3.65,3.28-6.38,5.86-8.58c0.44-0.37,0.89-0.74,1.34-1.11
				c2.38-1.97,4.85-4.01,6.35-6.77c1.67-3.08,2.01-7.97-1.19-11.44L-321.41,104.09z"/>
		</g>
		<path d="M-342.7,138.46l-0.66-0.7c-2.74,2.59-6.57,2.89-9.95,2.84c-0.58-0.01-1.15-0.02-1.74-0.04c-3.12-0.09-6.35-0.18-9.28,1.03
			c-3.25,1.34-6.61,5.13-6.28,10.28l0.96-0.06c-0.3-4.68,2.74-8.12,5.69-9.33c2.75-1.12,5.87-1.04,8.89-0.95
			c0.58,0.02,1.17,0.03,1.75,0.04C-349.74,141.61-345.68,141.28-342.7,138.46z"/>
	</g>
	<path class="st1" d="M-121.8,319.65c14.71,4.45,30.5,11.57,41.76,22.91l5.38-20.92c-6-3-16.2-5.6-27.59-5.6
		C-109.64,316.04-116.21,317.34-121.8,319.65z"/>
	
		<ellipse transform="matrix(0.2911 -0.9567 0.9567 0.2911 -424.31 -466.6802)" class="st1" cx="-527.07" cy="52.98" rx="3.37" ry="4.08"/>
	<ellipse transform="matrix(0.5 -0.866 0.866 0.5 -277.1062 -386.2065)" class="st1" cx="-473.02" cy="46.88" rx="2.77" ry="3.35"/>
	<path class="st1" d="M-479.08,156.25c-0.65,0.6-1.34,1.55-2.27,2.07c-2.72,1.5-5.23,3.4-7.27,5.75c-1.04,1.2-1.96,2.5-2.74,3.89
		c-0.93,1.66-1.16,3.2-2.58,4.55c-0.37,0.35-0.8,0.67-1.3,0.76c-2.94,0.52-1.23-4.9-0.74-6.05c0.79-1.87,1.83-3.62,3.09-5.21
		c2.56-3.25,5.95-5.75,9.55-7.73C-481.49,153.26-479.79,152.92-479.08,156.25z"/>
</g>
</svg>
