<?xml version="1.0" encoding="UTF-8"?>
<svg version="1.1" xmlns="http://www.w3.org/2000/svg" width="500" height="500">
<path d="M0 0 C5.18659613 0.41342433 7.35978999 1.7809862 10.875 5.5625 C11.65617188 6.38878906 12.43734375 7.21507812 13.2421875 8.06640625 C13.82226562 8.70449219 14.40234375 9.34257812 15 10 C13.69737861 15.10445824 11.37690127 18.20160774 7.75 21.875 C3.85800416 25.94295191 0.31157018 30.01396876 -2.87890625 34.671875 C-3.24886719 35.11015625 -3.61882812 35.5484375 -4 36 C-4.66 36 -5.32 36 -6 36 C-6 36.66 -6 37.32 -6 38 C-6.66 38 -7.32 38 -8 38 C-8.28875 38.598125 -8.5775 39.19625 -8.875 39.8125 C-10 42 -10 42 -12 45 C-12.66 45 -13.32 45 -14 45 C-14.4640625 45.928125 -14.4640625 45.928125 -14.9375 46.875 C-15.625 48.25 -16.3125 49.625 -17 51 C-17.66 51 -18.32 51 -19 51 C-19 51.66 -19 52.32 -19 53 C-19.66 53 -20.32 53 -21 53 C-21 53.66 -21 54.32 -21 55 C-21.66 55 -22.32 55 -23 55 C-23.28875 55.598125 -23.5775 56.19625 -23.875 56.8125 C-25 59 -25 59 -27 62 C-27.66 62 -28.32 62 -29 62 C-29.28875 62.598125 -29.5775 63.19625 -29.875 63.8125 C-31 66 -31 66 -33 69 C-28.71 73.29 -24.42 77.58 -20 82 C-16.01891494 80.00945747 -14.41420787 78.48401499 -11.5625 75.1875 C-10.77488281 74.29546875 -9.98726563 73.4034375 -9.17578125 72.484375 C-8.45777344 71.66453125 -7.73976563 70.8446875 -7 70 C-4.61843577 67.28171076 -2.84538952 65.2752431 0.6875 64.125 C3 64 3 64 5 65 C6.77681734 69.9797274 6.11893028 75.48899488 6 80.6875 C6.00644531 81.73873047 6.01289063 82.78996094 6.01953125 83.87304688 C5.83319469 91.00263841 4.32918357 95.02452621 -0.30859375 100.46411133 C-2 102 -2 102 -4 102 C-4 102.66 -4 103.32 -4 104 C-4.66 104 -5.32 104 -6 104 C-6 104.66 -6 105.32 -6 106 C-6.66 106 -7.32 106 -8 106 C-8 106.66 -8 107.32 -8 108 C-8.66 108 -9.32 108 -10 108 C-10 108.66 -10 109.32 -10 110 C-10.66 110 -11.32 110 -12 110 C-12 110.66 -12 111.32 -12 112 C-12.66 112 -13.32 112 -14 112 C-14.21398437 112.54140625 -14.42796875 113.0828125 -14.6484375 113.640625 C-16.48077943 116.8392797 -18.99796606 119.20964484 -21.625 121.75 C-22.140625 122.25660156 -22.65625 122.76320313 -23.1875 123.28515625 C-24.45383339 124.52803902 -25.7263144 125.76465276 -27 127 C-32.4779956 125.79685741 -35.16533754 124.41417864 -39.0625 120.1875 C-42.93048938 116.06908974 -42.93048938 116.06908974 -47.1875 112.375 C-49.63080691 110.31176306 -51.51121709 108.30484585 -53.5625 105.875 C-56.1107755 102.87369775 -58.40510545 100.74297917 -62 99 C-62 99.66 -62 100.32 -62 101 C-62.66 101 -63.32 101 -64 101 C-64.37125 101.8353125 -64.37125 101.8353125 -64.75 102.6875 C-66.22924818 105.42410913 -67.93467439 107.67650869 -70 110 C-70.66 110 -71.32 110 -72 110 C-72 110.66 -72 111.32 -72 112 C-72.66 112 -73.32 112 -74 112 C-74.268125 112.5775 -74.53625 113.155 -74.8125 113.75 C-76.02929189 116.05550043 -77.30333879 118.02056192 -79 120 C-79.66 120 -80.32 120 -81 120 C-81.268125 120.598125 -81.53625 121.19625 -81.8125 121.8125 C-82.99917406 123.99847854 -84.09599113 125.41332594 -86 127 C-86.66 127 -87.32 127 -88 127 C-88.2784375 127.8971875 -88.2784375 127.8971875 -88.5625 128.8125 C-90.75429984 132.14784758 -93.26238336 132.8164214 -97 134 C-100.81794478 133.77541501 -103.6955876 132.90639177 -107 131 C-107 130.34 -107 129.68 -107 129 C-107.99 129 -108.98 129 -110 129 C-113.18336641 126.39542748 -114.95584126 123.98678793 -116 120 C-115.69136965 116.21927824 -114.89435556 113.28354963 -113 110 C-112.34 110 -111.68 110 -111 110 C-110.78472656 109.45601563 -110.56945312 108.91203125 -110.34765625 108.3515625 C-108.53620359 105.19070887 -106.04503977 102.87236204 -103.4375 100.375 C-99.77285984 97.03597098 -99.77285984 97.03597098 -97 93 C-96.34 93 -95.68 93 -95 93 C-95 92.34 -95 91.68 -95 91 C-94.34 91 -93.68 91 -93 91 C-93 90.34 -93 89.68 -93 89 C-92.34 89 -91.68 89 -91 89 C-91 88.34 -91 87.68 -91 87 C-90.34 87 -89.68 87 -89 87 C-89 86.34 -89 85.68 -89 85 C-88.34 85 -87.68 85 -87 85 C-87 84.34 -87 83.68 -87 83 C-86.34 83 -85.68 83 -85 83 C-83.7390121 80.92307876 -82.94186179 79.60055113 -83.17993164 77.14135742 C-84.29044654 74.24158779 -85.97798082 72.66740033 -88.18359375 70.48828125 C-89.02857422 69.64845703 -89.87355469 68.80863281 -90.74414062 67.94335938 C-91.63294922 67.07517578 -92.52175781 66.20699219 -93.4375 65.3125 C-94.32244141 64.43271484 -95.20738281 63.55292969 -96.11914062 62.64648438 C-100.18748298 58.32762308 -100.18748298 58.32762308 -105 55 C-105 54.34 -105 53.68 -105 53 C-105.66 53 -106.32 53 -107 53 C-107 52.34 -107 51.68 -107 51 C-107.66 51 -108.32 51 -109 51 C-109 50.34 -109 49.68 -109 49 C-109.66 49 -110.32 49 -111 49 C-111 48.34 -111 47.68 -111 47 C-111.66 47 -112.32 47 -113 47 C-113 46.34 -113 45.68 -113 45 C-113.66 45 -114.32 45 -115 45 C-115 44.34 -115 43.68 -115 43 C-115.5775 42.7525 -116.155 42.505 -116.75 42.25 C-119.44802385 40.75109786 -121.08748093 39.44011054 -123 37 C-124.39285714 30.78571429 -124.39285714 30.78571429 -123 28 C-114.75541832 26.07936146 -105.61530409 26.76363133 -97.20776367 26.85742188 C-95.44607296 26.86912854 -93.68417203 26.86297812 -91.92260742 26.83886719 C-75.39950497 26.6233016 -75.39950497 26.6233016 -69.28515625 32.06640625 C-67.82119027 33.67934504 -66.39086336 35.32361489 -65 37 C-63.59348913 38.39965916 -62.17464964 39.78706819 -60.7421875 41.16015625 C-59.45048565 42.45831661 -58.16137494 43.7590609 -56.875 45.0625 C-56.2046875 45.73732422 -55.534375 46.41214844 -54.84375 47.10742188 C-53.22677774 48.73594394 -51.61222179 50.36677733 -50 52 C-49.38125 51.34 -48.7625 50.68 -48.125 50 C-46 48 -46 48 -44 48 C-44 47.34 -44 46.68 -44 46 C-43.34 46 -42.68 46 -42 46 C-41.67 45.01 -41.34 44.02 -41 43 C-40.34 43 -39.68 43 -39 43 C-39 42.34 -39 41.68 -39 41 C-38.34 41 -37.68 41 -37 41 C-37 40.34 -37 39.68 -37 39 C-36.34 39 -35.68 39 -35 39 C-35 38.34 -35 37.68 -35 37 C-34.34 37 -33.68 37 -33 37 C-32.73832031 36.42121094 -32.47664063 35.84242188 -32.20703125 35.24609375 C-29.10789615 29.47909478 -23.81624857 24.40342726 -19 20 C-18.34 20 -17.68 20 -17 20 C-17 19.34 -17 18.68 -17 18 C-16.34 18 -15.68 18 -15 18 C-14.79503906 17.46632812 -14.59007812 16.93265625 -14.37890625 16.3828125 C-12.42167354 13.00062566 -9.7403035 10.56962512 -6.9375 7.875 C-2.9955106 4.30446634 -2.9955106 4.30446634 0 0 Z " fill="#287DE0" transform="translate(195,179)"/>
<path d="M0 0 C1.31291016 -0.02513672 1.31291016 -0.02513672 2.65234375 -0.05078125 C6.24557823 0.4908246 7.47691598 2.52876994 9.59643555 5.36547852 C11.3191289 7.86541752 13.03906735 10.36699147 14.75 12.875 C15.35650391 13.75091797 15.96300781 14.62683594 16.58789062 15.52929688 C17.16087891 16.36654297 17.73386719 17.20378906 18.32421875 18.06640625 C18.84975342 18.83283447 19.37528809 19.5992627 19.91674805 20.38891602 C21.0625 22.3125 21.0625 22.3125 21.0625 24.3125 C21.7225 24.3125 22.3825 24.3125 23.0625 24.3125 C24.3515625 26.0625 24.3515625 26.0625 25.6875 28.3125 C26.13351562 29.055 26.57953125 29.7975 27.0390625 30.5625 C27.37679687 31.14 27.71453125 31.7175 28.0625 32.3125 C28.10008423 30.91173218 28.10008423 30.91173218 28.13842773 29.48266602 C28.23336928 26.02924811 28.33261258 22.5760104 28.43481445 19.12280273 C28.47821813 17.62610731 28.51988913 16.12936061 28.55981445 14.63256836 C28.61738616 12.48535688 28.68111716 10.33840479 28.74609375 8.19140625 C28.78275146 6.8979126 28.81940918 5.60441895 28.85717773 4.27172852 C29.0625 1.3125 29.0625 1.3125 30.0625 0.3125 C33.72905195 0.16949875 37.39394219 0.27033267 41.0625 0.3125 C42.00468263 13.23975653 42.05106251 25.98811298 41.625 38.9375 C41.57156859 40.73435441 41.51883116 42.53122959 41.46679688 44.328125 C41.33998545 48.65652998 41.20394258 52.98454946 41.0625 57.3125 C30.56969902 58.34225568 30.56969902 58.34225568 27.26367188 56.08349609 C25.88745292 54.29178508 24.84350733 52.50995819 23.8125 50.5 C23.01036888 49.12220645 22.20565151 47.74591553 21.3984375 46.37109375 C21.01268555 45.68515137 20.62693359 44.99920898 20.22949219 44.29248047 C17.96689638 40.45364113 15.16900755 37.01664028 12.4609375 33.484375 C11.0625 31.3125 11.0625 31.3125 11.0625 28.3125 C10.0725 27.9825 9.0825 27.6525 8.0625 27.3125 C7.7325 37.2125 7.4025 47.1125 7.0625 57.3125 C2.4425 57.3125 -2.1775 57.3125 -6.9375 57.3125 C-6.98681912 49.51628551 -7.02318111 41.72016119 -7.04736328 33.92382812 C-7.05744089 31.26984069 -7.07110313 28.6158644 -7.08837891 25.96191406 C-7.11254992 22.15426893 -7.12396535 18.34677016 -7.1328125 14.5390625 C-7.14313507 13.34632721 -7.15345764 12.15359192 -7.16409302 10.92471313 C-7.16424408 9.82372284 -7.16439514 8.72273254 -7.16455078 7.58837891 C-7.17121262 6.1294371 -7.17121262 6.1294371 -7.17800903 4.64102173 C-6.69910372 0.0044332 -4.0163181 0.01769303 0 0 Z " fill="#252E39" transform="translate(236.9375,182.6875)"/>
<path d="M0 0 C0.98871094 -0.01417969 1.97742188 -0.02835938 2.99609375 -0.04296875 C5.5625 0.1875 5.5625 0.1875 7.5625 2.1875 C7.78955078 4.15869141 7.78955078 4.15869141 7.7578125 6.5390625 C7.74814453 7.81523437 7.74814453 7.81523437 7.73828125 9.1171875 C7.72152344 10.00664062 7.70476562 10.89609375 7.6875 11.8125 C7.67847656 12.7096875 7.66945313 13.606875 7.66015625 14.53125 C7.6365497 16.75026586 7.6036231 18.96875077 7.5625 21.1875 C8.2225 21.1875 8.8825 21.1875 9.5625 21.1875 C9.82546875 20.61644531 10.0884375 20.04539062 10.359375 19.45703125 C12.10655312 16.16121798 14.38415412 13.40387603 16.7265625 10.51171875 C18.5556315 8.27819993 18.5556315 8.27819993 19.8984375 6.08203125 C22.249629 2.62649222 23.6243676 1.37490205 27.828125 0.53515625 C31.0887821 0.27755022 34.29280584 0.15354175 37.5625 0.1875 C38.2734375 1.9296875 38.2734375 1.9296875 38.5625 4.1875 C37.1640625 6.2578125 37.1640625 6.2578125 35.1875 8.3125 C32.55237907 11.02368016 32.55237907 11.02368016 30.5625 14.1875 C29.9025 14.1875 29.2425 14.1875 28.5625 14.1875 C28.253125 14.80625 27.94375 15.425 27.625 16.0625 C26.9375 17.4375 26.25 18.8125 25.5625 20.1875 C24.9025 20.1875 24.2425 20.1875 23.5625 20.1875 C22.02810982 22.53421439 21.56563336 24.05276531 21.5 26.875 C22.7863916 30.88551498 24.79070494 33.30972577 27.44140625 36.5390625 C29.93073365 39.64728346 32.22661057 42.85722858 34.5 46.125 C34.90154297 46.6929126 35.30308594 47.2608252 35.71679688 47.84594727 C38.5625 51.94809018 38.5625 51.94809018 38.5625 54.1875 C39.5525 54.5175 40.5425 54.8475 41.5625 55.1875 C40.9025 56.5075 40.2425 57.8275 39.5625 59.1875 C35.2725 59.1875 30.9825 59.1875 26.5625 59.1875 C25.9025 57.8675 25.2425 56.5475 24.5625 55.1875 C23.9025 55.1875 23.2425 55.1875 22.5625 55.1875 C21.72401196 53.73212432 20.89186066 52.27309627 20.0625 50.8125 C19.5984375 50.00039063 19.134375 49.18828125 18.65625 48.3515625 C17.5625 46.1875 17.5625 46.1875 17.5625 44.1875 C16.9025 44.1875 16.2425 44.1875 15.5625 44.1875 C14.5725 42.2075 13.5825 40.2275 12.5625 38.1875 C11.5725 38.1875 10.5825 38.1875 9.5625 38.1875 C7.92980468 41.45289064 8.22192763 45.09152115 8.0625 48.6875 C7.69763514 56.91722973 7.69763514 56.91722973 6.5625 59.1875 C2.6025 59.1875 -1.3575 59.1875 -5.4375 59.1875 C-6.73085514 56.60078972 -6.56456076 54.73203216 -6.56689453 51.83569336 C-6.57162277 50.15901833 -6.57162277 50.15901833 -6.57644653 48.44847107 C-6.5744223 47.23699905 -6.57239807 46.02552704 -6.5703125 44.77734375 C-6.57126923 43.5395668 -6.57222595 42.30178986 -6.57321167 41.02650452 C-6.57406799 37.7339809 -6.57003316 34.4415042 -6.56445312 31.14898682 C-6.56250057 29.12559512 -6.56444773 27.10224674 -6.56787109 25.07885742 C-6.57402249 21.20749881 -6.57330714 17.33620497 -6.5703125 13.46484375 C-6.57233673 12.2513475 -6.57436096 11.03785126 -6.57644653 9.7875824 C-6.57329437 8.6729512 -6.57014221 7.55832001 -6.56689453 6.40991211 C-6.56609894 5.42333115 -6.56530334 4.43675018 -6.56448364 3.42027283 C-6.31874276 -0.90062681 -3.74833351 0.02437148 0 0 Z " fill="#1F2933" transform="translate(381.4375,254.8125)"/>
<path d="M0 0 C6 10.2 6 10.2 6 14 C6.70295957 15.6799897 7.41018179 17.3583945 8.14453125 19.02490234 C9.53953642 22.24567627 10.76873475 25.52633943 12 28.8125 C12.39409058 29.86135376 12.39409058 29.86135376 12.79614258 30.93139648 C14.50683786 35.53629696 16.01400067 40.15887367 17.33984375 44.890625 C17.99065816 46.97015034 18.81376308 48.84766198 19.75 50.8125 C21 54 21 54 20 59 C16.04 59 12.08 59 8 59 C5.35209525 54.18562773 4.40076146 50.60304584 3 45 C-2.94 45.33 -8.88 45.66 -15 46 C-15.61875 47.77375 -16.2375 49.5475 -16.875 51.375 C-18.75 56.75 -18.75 56.75 -21 59 C-23.56640625 59.23046875 -23.56640625 59.23046875 -26.5625 59.1875 C-27.55378906 59.18105469 -28.54507812 59.17460937 -29.56640625 59.16796875 C-32 59 -32 59 -33 58 C-32.25452338 49.05428053 -28.66827662 41.11791419 -25.19921875 32.9296875 C-23.59566294 29.01220587 -22.2693082 25.03574915 -21 21 C-19.72295012 17.0837137 -18.37864134 13.19406214 -17 9.3125 C-16.67 8.38050781 -16.34 7.44851563 -16 6.48828125 C-15 4 -15 4 -13 1 C-8.66996045 -0.10768454 -4.45042425 -0.08900848 0 0 Z M-6 20 C-7.4919753 22.83475308 -8.62899507 25.64415161 -9.625 28.6875 C-9.88539063 29.47511719 -10.14578125 30.26273437 -10.4140625 31.07421875 C-11.04851407 32.82395837 -11.04851407 32.82395837 -11 34 C-7.7 34 -4.4 34 -1 34 C-1.44962196 32.03964825 -1.90998248 30.08175691 -2.375 28.125 C-2.63023437 27.03445313 -2.88546875 25.94390625 -3.1484375 24.8203125 C-3.78906215 21.89591545 -3.78906215 21.89591545 -6 20 Z " fill="#242E39" transform="translate(302,255)"/>
<path d="M0 0 C5.02734434 2.23491932 8.440762 5.99514989 12.3125 9.8125 C13.06595703 10.52470703 13.81941406 11.23691406 14.59570312 11.97070312 C15.30275391 12.66744141 16.00980469 13.36417969 16.73828125 14.08203125 C17.38837158 14.71343018 18.03846191 15.3448291 18.70825195 15.99536133 C20 18 20 18 19.70385742 20.74487305 C19.47158447 21.48906494 19.23931152 22.23325684 19 23 C18.34 23 17.68 23 17 23 C16.7525 23.556875 16.505 24.11375 16.25 24.6875 C14.77075182 27.42410913 13.06532561 29.67650869 11 32 C10.34 32 9.68 32 9 32 C9 32.66 9 33.32 9 34 C8.34 34 7.68 34 7 34 C6.731875 34.5775 6.46375 35.155 6.1875 35.75 C4.97070811 38.05550043 3.69666121 40.02056192 2 42 C1.34 42 0.68 42 0 42 C-0.268125 42.598125 -0.53625 43.19625 -0.8125 43.8125 C-1.99917406 45.99847854 -3.09599113 47.41332594 -5 49 C-5.66 49 -6.32 49 -7 49 C-7.185625 49.598125 -7.37125 50.19625 -7.5625 50.8125 C-9.75429984 54.14784758 -12.26238336 54.8164214 -16 56 C-19.81794478 55.77541501 -22.6955876 54.90639177 -26 53 C-26 52.34 -26 51.68 -26 51 C-26.99 51 -27.98 51 -29 51 C-32.18336641 48.39542748 -33.95584126 45.98678793 -35 42 C-34.69136965 38.21927824 -33.89435556 35.28354963 -32 32 C-31.34 32 -30.68 32 -30 32 C-29.78472656 31.45601563 -29.56945312 30.91203125 -29.34765625 30.3515625 C-27.53620359 27.19070887 -25.04503977 24.87236204 -22.4375 22.375 C-18.77285984 19.03597098 -18.77285984 19.03597098 -16 15 C-15.34 15 -14.68 15 -14 15 C-14 14.34 -14 13.68 -14 13 C-13.34 13 -12.68 13 -12 13 C-12 12.34 -12 11.68 -12 11 C-11.34 11 -10.68 11 -10 11 C-10 10.34 -10 9.68 -10 9 C-9.34 9 -8.68 9 -8 9 C-8 8.34 -8 7.68 -8 7 C-7.34 7 -6.68 7 -6 7 C-6 6.34 -6 5.68 -6 5 C-4.02 4.34 -2.04 3.68 0 3 C0 2.01 0 1.02 0 0 Z " fill="#192531" transform="translate(114,257)"/>
<path d="M0 0 C5.18659613 0.41342433 7.35978999 1.7809862 10.875 5.5625 C12.04675781 6.80193359 12.04675781 6.80193359 13.2421875 8.06640625 C13.82226562 8.70449219 14.40234375 9.34257812 15 10 C13.69737861 15.10445824 11.37690127 18.20160774 7.75 21.875 C3.85800416 25.94295191 0.31157018 30.01396876 -2.87890625 34.671875 C-3.24886719 35.11015625 -3.61882812 35.5484375 -4 36 C-4.66 36 -5.32 36 -6 36 C-6 36.66 -6 37.32 -6 38 C-6.66 38 -7.32 38 -8 38 C-8.28875 38.598125 -8.5775 39.19625 -8.875 39.8125 C-10 42 -10 42 -12 45 C-12.66 45 -13.32 45 -14 45 C-14.309375 45.61875 -14.61875 46.2375 -14.9375 46.875 C-15.625 48.25 -16.3125 49.625 -17 51 C-17.66 51 -18.32 51 -19 51 C-19 51.66 -19 52.32 -19 53 C-19.66 53 -20.32 53 -21 53 C-21 53.66 -21 54.32 -21 55 C-21.66 55 -22.32 55 -23 55 C-23.28875 55.598125 -23.5775 56.19625 -23.875 56.8125 C-25 59 -25 59 -27 62 C-27.66 62 -28.32 62 -29 62 C-29.433125 62.928125 -29.433125 62.928125 -29.875 63.875 C-31 66 -31 66 -33 68 C-37.01040563 67.78713346 -38.91816069 65.35896713 -41.5625 62.5625 C-43.99836547 60.00340357 -46.04978421 57.96681053 -49 56 C-48.45276317 52.62537285 -47.9451 50.91765 -46 48 C-45.34 48 -44.68 48 -44 48 C-44 47.34 -44 46.68 -44 46 C-43.34 46 -42.68 46 -42 46 C-41.67 45.01 -41.34 44.02 -41 43 C-40.34 43 -39.68 43 -39 43 C-39 42.34 -39 41.68 -39 41 C-38.34 41 -37.68 41 -37 41 C-37 40.34 -37 39.68 -37 39 C-36.34 39 -35.68 39 -35 39 C-35 38.34 -35 37.68 -35 37 C-34.34 37 -33.68 37 -33 37 C-32.73832031 36.42121094 -32.47664063 35.84242188 -32.20703125 35.24609375 C-29.10789615 29.47909478 -23.81624857 24.40342726 -19 20 C-18.34 20 -17.68 20 -17 20 C-17 19.34 -17 18.68 -17 18 C-16.34 18 -15.68 18 -15 18 C-14.79503906 17.46632812 -14.59007812 16.93265625 -14.37890625 16.3828125 C-12.42167354 13.00062566 -9.7403035 10.56962512 -6.9375 7.875 C-2.9955106 4.30446634 -2.9955106 4.30446634 0 0 Z " fill="#1E2935" transform="translate(195,179)"/>
<path d="M0 0 C1.44826172 -0.02126953 1.44826172 -0.02126953 2.92578125 -0.04296875 C5.74765379 0.19251991 7.34023202 0.63501802 9.6875 2.1875 C10.76510308 4.14677833 11.74586649 6.15936629 12.6875 8.1875 C14.63970819 11.54991513 16.66117676 14.86931373 18.6875 18.1875 C19.0175 17.5275 19.3475 16.8675 19.6875 16.1875 C20.3475 16.1875 21.0075 16.1875 21.6875 16.1875 C21.831875 15.424375 21.97625 14.66125 22.125 13.875 C22.6875 11.1875 22.6875 11.1875 23.6875 8.1875 C24.3475 7.8575 25.0075 7.5275 25.6875 7.1875 C26.80384152 5.53698712 26.80384152 5.53698712 27.8125 3.625 C28.43125 2.490625 29.05 1.35625 29.6875 0.1875 C33.6475 0.1875 37.6075 0.1875 41.6875 0.1875 C42.6875 4.1875 42.6875 4.1875 41.75 6.4375 C41.2240625 7.30375 41.2240625 7.30375 40.6875 8.1875 C40.0275 8.1875 39.3675 8.1875 38.6875 8.1875 C38.584375 8.93 38.48125 9.6725 38.375 10.4375 C37.63659194 13.39113226 36.5651808 14.840399 34.6875 17.1875 C34.1925 18.6725 34.1925 18.6725 33.6875 20.1875 C33.0275 20.1875 32.3675 20.1875 31.6875 20.1875 C28.91091317 26.21392527 28.91091317 26.21392527 29.578125 32.50390625 C30.02671875 33.24511719 30.4753125 33.98632812 30.9375 34.75 C31.37578125 35.49378906 31.8140625 36.23757812 32.265625 37.00390625 C33.65960065 39.22216811 33.65960065 39.22216811 35.359375 41.27734375 C36.6875 43.1875 36.6875 43.1875 36.6875 46.1875 C37.6775 46.5175 38.6675 46.8475 39.6875 47.1875 C39.6875 48.1775 39.6875 49.1675 39.6875 50.1875 C40.6775 50.6825 40.6775 50.6825 41.6875 51.1875 C44.6875 55.80288462 44.6875 55.80288462 44.6875 57.1875 C30.4571886 58.5564492 30.4571886 58.5564492 26.32421875 55.359375 C23.70869384 51.43933271 22.46954489 47.822145 21.6875 43.1875 C21.0275 43.1875 20.3675 43.1875 19.6875 43.1875 C19.0275 42.1975 18.3675 41.2075 17.6875 40.1875 C17.3575 41.1775 17.0275 42.1675 16.6875 43.1875 C16.0275 43.1875 15.3675 43.1875 14.6875 43.1875 C14.56632812 43.91324219 14.44515625 44.63898438 14.3203125 45.38671875 C13.22826611 50.22003516 11.63051679 54.04918052 7.6875 57.1875 C2.57747546 57.97859166 -2.1865362 57.71574818 -7.3125 57.1875 C-5.62759626 52.12269955 -2.68516406 47.96712519 0.25 43.5625 C1.25435356 42.05150303 2.25578641 40.5385595 3.25390625 39.0234375 C3.69677979 38.35876465 4.13965332 37.6940918 4.59594727 37.00927734 C5.84645479 35.07119198 5.84645479 35.07119198 6.6875 32.1875 C7.3475 32.1875 8.0075 32.1875 8.6875 32.1875 C9.80171743 25.55681391 5.89883791 21.29643873 2.3125 16.125 C1.11330375 14.3659226 -0.08214359 12.6042824 -1.2734375 10.83984375 C-1.80759277 10.06632568 -2.34174805 9.29280762 -2.89208984 8.49584961 C-4.34854401 6.12892384 -5.35734518 3.79244153 -6.3125 1.1875 C-4.59154777 -0.53345223 -2.34086086 0.01550239 0 0 Z " fill="#17212D" transform="translate(338.3125,182.8125)"/>
<path d="M0 0 C3.26762103 3.36372753 5.95820251 6.2693289 6.375 11.0625 C6.2925 11.76375 6.21 12.465 6.125 13.1875 C2.06198954 14.17247223 -1.69895272 14.49683684 -5.875 14.1875 C-7.8125 12.8125 -7.8125 12.8125 -8.875 11.1875 C-8.875 10.5275 -8.875 9.8675 -8.875 9.1875 C-15.400434 8.18357024 -15.400434 8.18357024 -21.875 9.1875 C-21.545 11.4975 -21.215 13.8075 -20.875 16.1875 C-20.25753906 16.35765625 -19.64007813 16.5278125 -19.00390625 16.703125 C-11.42594255 18.87155297 -3.25443908 21.40292069 3.125 26.1875 C3.8125 28.3125 3.8125 28.3125 4.125 30.1875 C5.115 30.6825 5.115 30.6825 6.125 31.1875 C6.17902274 33.29138569 6.21780256 35.39566714 6.25 37.5 C6.27320313 38.67175781 6.29640625 39.84351563 6.3203125 41.05078125 C6.125 44.1875 6.125 44.1875 4.125 47.1875 C3.465 47.1875 2.805 47.1875 2.125 47.1875 C2.125 47.8475 2.125 48.5075 2.125 49.1875 C1.465 49.1875 0.805 49.1875 0.125 49.1875 C0.125 49.8475 0.125 50.5075 0.125 51.1875 C-0.865 51.1875 -1.855 51.1875 -2.875 51.1875 C-2.875 51.8475 -2.875 52.5075 -2.875 53.1875 C-12.50055594 55.88941044 -20.76590202 55.74204899 -29.875 51.1875 C-29.875 50.5275 -29.875 49.8675 -29.875 49.1875 C-30.7721875 48.9090625 -30.7721875 48.9090625 -31.6875 48.625 C-34.94809089 46.48232599 -35.61052773 43.79124596 -36.875 40.1875 C-36.875 39.1975 -36.875 38.2075 -36.875 37.1875 C-28.44642857 34.90178571 -28.44642857 34.90178571 -23.875 35.1875 C-23.58625 35.97125 -23.2975 36.755 -23 37.5625 C-22.02587746 40.28421632 -22.02587746 40.28421632 -19.875 42.1875 C-17.54261933 42.58251229 -17.54261933 42.58251229 -14.9375 42.5625 C-13.62458984 42.60503906 -13.62458984 42.60503906 -12.28515625 42.6484375 C-9.70307867 42.40670915 -9.70307867 42.40670915 -8.05859375 40.1640625 C-7.66800781 39.51179688 -7.27742188 38.85953125 -6.875 38.1875 C-7.84401864 35.70651688 -8.40961328 34.443421 -10.78271484 33.13842773 C-11.92281006 32.75859741 -11.92281006 32.75859741 -13.0859375 32.37109375 C-13.91867187 32.08169922 -14.75140625 31.79230469 -15.609375 31.49414062 C-16.48078125 31.20732422 -17.3521875 30.92050781 -18.25 30.625 C-19.96828492 30.04668172 -21.68452208 29.46223588 -23.3984375 28.87109375 C-24.5419165 28.49295532 -24.5419165 28.49295532 -25.70849609 28.10717773 C-28.11243464 27.08670934 -29.91904974 25.91554292 -31.875 24.1875 C-31.875 23.5275 -31.875 22.8675 -31.875 22.1875 C-32.535 22.1875 -33.195 22.1875 -33.875 22.1875 C-36.05312141 17.83125718 -36.37537739 13.96033049 -35.875 9.1875 C-34.875 6.1875 -34.875 6.1875 -33.875 4.1875 C-33.215 4.1875 -32.555 4.1875 -31.875 4.1875 C-31.875 3.5275 -31.875 2.8675 -31.875 2.1875 C-22.73817718 -6.41186266 -10.28319699 -6.48288506 0 0 Z " fill="#262F39" transform="translate(361.875,258.8125)"/>
<path d="M0 0 C8.8790625 -0.0309375 8.8790625 -0.0309375 17.9375 -0.0625 C19.80784912 -0.071604 21.67819824 -0.08070801 23.60522461 -0.09008789 C25.07926359 -0.09300709 26.55330337 -0.09555564 28.02734375 -0.09765625 C28.79953247 -0.10277222 29.57172119 -0.10788818 30.36730957 -0.11315918 C32.24525187 -0.11346974 34.12309253 -0.06233569 36 0 C37.65606367 1.65606367 37.39915554 3.72865002 37.625 6 C37.72039062 6.9075 37.81578125 7.815 37.9140625 8.75 C37.94242187 9.4925 37.97078125 10.235 38 11 C37 12 37 12 34.59155273 12.11352539 C33.54942627 12.10828857 32.5072998 12.10305176 31.43359375 12.09765625 C30.30888672 12.09443359 29.18417969 12.09121094 28.02539062 12.08789062 C26.84138672 12.07951172 25.65738281 12.07113281 24.4375 12.0625 C23.24962891 12.05798828 22.06175781 12.05347656 20.83789062 12.04882812 C17.89187774 12.03699675 14.94596319 12.02051287 12 12 C12.14095064 13.6254308 12.28792087 15.25034051 12.4375 16.875 C12.51871094 17.77992188 12.59992188 18.68484375 12.68359375 19.6171875 C12.86989285 22.01110861 12.86989285 22.01110861 14 24 C20.6 24 27.2 24 34 24 C34 27.63 34 31.26 34 35 C26.74 35 19.48 35 12 35 C12.33 38.3 12.66 41.6 13 45 C20.59 45 28.18 45 36 45 C38 52 38 52 37 57 C24.79 57 12.58 57 0 57 C0 38.19 0 19.38 0 0 Z " fill="#222C36" transform="translate(289,183)"/>
<path d="M0 0 C1.52549258 5.16745477 1.12208555 10.35107616 1 15.6875 C1.00966797 17.2643457 1.00966797 17.2643457 1.01953125 18.87304688 C0.83319469 26.00263841 -0.67081643 30.02452621 -5.30859375 35.46411133 C-7 37 -7 37 -9 37 C-9 37.66 -9 38.32 -9 39 C-9.66 39 -10.32 39 -11 39 C-11 39.66 -11 40.32 -11 41 C-11.66 41 -12.32 41 -13 41 C-13 41.66 -13 42.32 -13 43 C-13.66 43 -14.32 43 -15 43 C-15 43.66 -15 44.32 -15 45 C-15.66 45 -16.32 45 -17 45 C-17 45.66 -17 46.32 -17 47 C-17.66 47 -18.32 47 -19 47 C-19.21398437 47.54140625 -19.42796875 48.0828125 -19.6484375 48.640625 C-21.48077943 51.8392797 -23.99796606 54.20964484 -26.625 56.75 C-27.140625 57.25660156 -27.65625 57.76320313 -28.1875 58.28515625 C-29.45383339 59.52803902 -30.7263144 60.76465276 -32 62 C-34.31 61.34 -36.62 60.68 -39 60 C-39.21181801 56.1531116 -38.65484923 53.67780084 -37.0625 50.1875 C-34.20028064 43.62755794 -31.68616657 36.95617154 -29.1875 30.25 C-28.57370483 28.60487427 -28.57370483 28.60487427 -27.94750977 26.92651367 C-26.96321373 24.28500364 -25.98065496 21.64286351 -25 19 C-24.34 19 -23.68 19 -23 19 C-22.75894531 18.44183594 -22.51789063 17.88367188 -22.26953125 17.30859375 C-18.13939897 9.79810704 -9.09005775 -2.15290841 0 0 Z " fill="#1D2834" transform="translate(200,244)"/>
<path d="M0 0 C1.36560059 0.00303635 1.36560059 0.00303635 2.75878906 0.00613403 C3.68723633 0.00517731 4.61568359 0.00422058 5.57226562 0.00323486 C7.53938871 0.00255298 9.50651403 0.00440781 11.47363281 0.00857544 C14.49581932 0.01392358 17.51785721 0.00863071 20.54003906 0.00222778 C22.44628939 0.00288856 24.35253963 0.00416972 26.25878906 0.00613403 C27.16918945 0.0041098 28.07958984 0.00208557 29.01757812 0 C35.39383938 0.02399685 35.39383938 0.02399685 36.50878906 1.13894653 C36.65189194 4.80810423 36.55100568 8.46610094 36.50878906 12.13894653 C31.55878906 12.13894653 26.60878906 12.13894653 21.50878906 12.13894653 C21.50878906 26.98894653 21.50878906 41.83894653 21.50878906 57.13894653 C17.54878906 57.13894653 13.58878906 57.13894653 9.50878906 57.13894653 C8.50878906 56.13894653 8.50878906 56.13894653 8.38853455 54.34828186 C8.39186546 53.17912987 8.39186546 53.17912987 8.39526367 51.98635864 C8.3953392 51.10552109 8.39541473 50.22468353 8.39549255 49.31715393 C8.40323448 47.88122643 8.40323448 47.88122643 8.41113281 46.41629028 C8.41254776 45.44107925 8.41396271 44.46586823 8.41542053 43.46110535 C8.42103774 40.33285511 8.43359313 37.2046753 8.44628906 34.07644653 C8.45130185 31.96121319 8.45586514 29.84597873 8.45996094 27.73074341 C8.47101276 22.53345046 8.4882889 17.33621046 8.50878906 12.13894653 C3.22878906 12.13894653 -2.05121094 12.13894653 -7.49121094 12.13894653 C-8.73955238 9.64226365 -8.44276219 8.32565502 -8.11621094 5.57644653 C-8.02597656 4.77078247 -7.93574219 3.96511841 -7.84277344 3.13504028 C-7.068632 -1.26036277 -3.8157428 0.01436042 0 0 Z " fill="#212A35" transform="translate(393.4912109375,182.86105346679688)"/>
<path d="M0 0 C1.72447904 0.00031742 3.44897767 0.01165954 5.17333984 0.03173828 C6.53415176 0.03598312 6.53415176 0.03598312 7.92245483 0.04031372 C10.82652857 0.05152926 13.73029646 0.07663615 16.63427734 0.10205078 C18.60041873 0.11207881 20.56656494 0.12120497 22.53271484 0.12939453 C27.35835393 0.15147306 32.18376374 0.18601213 37.00927734 0.22705078 C37.00927734 4.84705078 37.00927734 9.46705078 37.00927734 14.22705078 C32.05927734 13.89705078 27.10927734 13.56705078 22.00927734 13.22705078 C22.17169922 14.55091797 22.33412109 15.87478516 22.50146484 17.23876953 C23.15619556 23.80342823 23.15985633 30.36130985 23.13964844 36.95141602 C23.13424241 39.05313174 23.13964873 41.15463801 23.14599609 43.25634766 C23.14533598 44.60725958 23.14405619 45.95817138 23.14208984 47.30908203 C23.14096191 48.51798096 23.13983398 49.72687988 23.13867188 50.97241211 C23.02413405 53.85336252 22.67466502 56.42905267 22.00927734 59.22705078 C20.19685683 59.25392357 18.38432501 59.27338794 16.57177734 59.28955078 C15.56244141 59.30115234 14.55310547 59.31275391 13.51318359 59.32470703 C11.00927734 59.22705078 11.00927734 59.22705078 10.00927734 58.22705078 C9.88729926 56.8465422 9.83158835 55.46007431 9.80395508 54.07446289 C9.78400986 53.19362534 9.76406464 52.31278778 9.74351501 51.40525818 C9.72680252 50.44797318 9.71009003 49.49068817 9.69287109 48.50439453 C9.67209 47.5291835 9.6513089 46.55397247 9.62989807 45.54920959 C9.56429322 42.42106448 9.50546706 39.29283256 9.44677734 36.16455078 C9.40360251 34.04930728 9.35998857 31.93407269 9.31591797 29.81884766 C9.20860074 24.62167194 9.1073645 19.42440856 9.00927734 14.22705078 C4.05927734 13.89705078 -0.89072266 13.56705078 -5.99072266 13.22705078 C-6.18603516 4.82861328 -6.18603516 4.82861328 -5.99072266 2.22705078 C-3.99072266 0.22705078 -3.99072266 0.22705078 0 0 Z " fill="#26303B" transform="translate(235.99072265625,254.77294921875)"/>
<path d="M0 0 C2.57161458 0.03255208 5.14322917 0.06510417 7.71484375 0.09765625 C8.67883798 12.50493544 8.69598932 24.72841042 8.27734375 37.16015625 C8.2239202 38.91339059 8.17118259 40.66664598 8.11914062 42.41992188 C7.99224081 46.64611648 7.85620376 50.87192164 7.71484375 55.09765625 C7.38484375 55.09765625 7.05484375 55.09765625 6.71484375 55.09765625 C6.71484375 49.15765625 6.71484375 43.21765625 6.71484375 37.09765625 C4.40484375 37.75765625 2.09484375 38.41765625 -0.28515625 39.09765625 C-0.28515625 38.09765625 -0.28515625 37.09765625 -0.28515625 36.09765625 C-2.26515625 36.59265625 -2.26515625 36.59265625 -4.28515625 37.09765625 C-4.61515625 36.43765625 -4.94515625 35.77765625 -5.28515625 35.09765625 C-4.62515625 35.09765625 -3.96515625 35.09765625 -3.28515625 35.09765625 C-3.29039307 34.07293213 -3.29562988 33.04820801 -3.30102539 31.99243164 C-3.31907594 28.20370349 -3.33058845 24.41497916 -3.34008789 20.6262207 C-3.34512799 18.98396161 -3.35196003 17.34170702 -3.3605957 15.69946289 C-3.37267551 13.34390146 -3.37838764 10.98839916 -3.3828125 8.6328125 C-3.38797379 7.89426529 -3.39313507 7.15571808 -3.39845276 6.39479065 C-3.39864875 4.62867537 -3.34710344 2.86268479 -3.28515625 1.09765625 C-2.28515625 0.09765625 -2.28515625 0.09765625 0 0 Z " fill="#121C27" transform="translate(270.28515625,183.90234375)"/>
<path d="M0 0 C3.26762103 3.36372753 5.95820251 6.2693289 6.375 11.0625 C6.2925 11.76375 6.21 12.465 6.125 13.1875 C2.06198954 14.17247223 -1.69895272 14.49683684 -5.875 14.1875 C-7.8125 12.8125 -7.8125 12.8125 -8.875 11.1875 C-8.875 10.5275 -8.875 9.8675 -8.875 9.1875 C-10.091875 9.043125 -11.30875 8.89875 -12.5625 8.75 C-15.70170377 8.35969047 -18.7825134 7.86398144 -21.875 7.1875 C-22.68467438 4.27267222 -23.09345993 2.72636783 -21.9375 -0.125 C-21.586875 -0.681875 -21.23625 -1.23875 -20.875 -1.8125 C-21.865 -2.1425 -22.855 -2.4725 -23.875 -2.8125 C-22.21024314 -3.15524406 -20.54304677 -3.48614302 -18.875 -3.8125 C-17.988125 -4.06 -17.10125 -4.3075 -16.1875 -4.5625 C-10.29386619 -5.00730255 -4.96179784 -3.12808994 0 0 Z " fill="#2B3540" transform="translate(361.875,258.8125)"/>
<path d="M0 0 C0.66 0 1.32 0 2 0 C2.6875 1.75 2.6875 1.75 3 4 C1.5625 6.25 1.5625 6.25 0 8 C0.99 8.99 1.98 9.98 3 11 C3.99 10.67 4.98 10.34 6 10 C6 8.35 6 6.7 6 5 C8.31 5 10.62 5 13 5 C13 5.99 13 6.98 13 8 C12.34 8 11.68 8 11 8 C10.67 8.99 10.34 9.98 10 11 C9.34 11 8.68 11 8 11 C7.87882812 11.72574219 7.75765625 12.45148438 7.6328125 13.19921875 C6.54076611 18.03253516 4.94301679 21.86168052 1 25 C-4.11002454 25.79109166 -8.8740362 25.52824818 -14 25 C-12.31509626 19.93519955 -9.37266406 15.77962519 -6.4375 11.375 C-5.43314644 9.86400303 -4.43171359 8.3510595 -3.43359375 6.8359375 C-2.99072021 6.17126465 -2.54784668 5.5065918 -2.09155273 4.82177734 C-0.84104521 2.88369198 -0.84104521 2.88369198 0 0 Z " fill="#2F3741" transform="translate(345,215)"/>
<path d="M0 0 C0.33 0.99 0.66 1.98 1 3 C2.65 2.34 4.3 1.68 6 1 C6.66 1.99 7.32 2.98 8 4 C8 3.34 8 2.68 8 2 C13.46500137 -0.34726288 18.09116996 -0.06052937 23.875 0.375 C24.75414062 0.43171875 25.63328125 0.4884375 26.5390625 0.546875 C28.69342162 0.68737668 30.84683563 0.8422434 33 1 C33 1.33 33 1.66 33 2 C26.4 2 19.8 2 13 2 C13.33 2.99 13.66 3.98 14 5 C12.75 8.375 12.75 8.375 11.859375 10.21484375 C10.88208582 12.15340002 10.88208582 12.15340002 10 14.9375 C8 17 8 17 5.3984375 17.33984375 C2.56082479 17.37283925 -0.18030694 17.32146338 -3 17 C-3.33 16.67 -3.66 16.34 -4 16 C-3.52901824 10.34821884 -1.91717519 5.31744817 0 0 Z " fill="#202935" transform="translate(273,297)"/>
<path d="M0 0 C3.96 0 7.92 0 12 0 C13 4 13 4 12.0625 6.25 C11.5365625 7.11625 11.5365625 7.11625 11 8 C10.34 8 9.68 8 9 8 C8.896875 8.7425 8.79375 9.485 8.6875 10.25 C7.94909194 13.20363226 6.8776808 14.652899 5 17 C4.67 17.99 4.34 18.98 4 20 C3.34 20 2.68 20 2 20 C1.01 22.475 1.01 22.475 0 25 C-0.33 23.68 -0.66 22.36 -1 21 C-0.34 21 0.32 21 1 21 C1 20.01 1 19.02 1 18 C1.66 18 2.32 18 3 18 C2.67 16.68 2.34 15.36 2 14 C0.68 14.33 -0.64 14.66 -2 15 C-2 14.01 -2 13.02 -2 12 C-2.61875 12.495 -3.2375 12.99 -3.875 13.5 C-6 15 -6 15 -8 15 C-7.40138258 12.64828869 -6.73075648 10.3140622 -6 8 C-5.34 7.67 -4.68 7.34 -4 7 C-2.88365848 5.34948712 -2.88365848 5.34948712 -1.875 3.4375 C-1.25625 2.303125 -0.6375 1.16875 0 0 Z " fill="#1F2834" transform="translate(368,183)"/>
<path d="M0 0 C0.33 0.99 0.66 1.98 1 3 C0.01 3.66 -0.98 4.32 -2 5 C-1.67 5.66 -1.34 6.32 -1 7 C-0.34 6.67 0.32 6.34 1 6 C1.99 6.33 2.98 6.66 4 7 C4.33 6.01 4.66 5.02 5 4 C5.33 4.33 5.66 4.66 6 5 C6.33 4.34 6.66 3.68 7 3 C8.32 3.33 9.64 3.66 11 4 C11 4.99 11 5.98 11 7 C11.99 7.33 12.98 7.66 14 8 C14 8.99 14 9.98 14 11 C14.66 11.33 15.32 11.66 16 12 C19 16.61538462 19 16.61538462 19 18 C4.7696886 19.3689492 4.7696886 19.3689492 0.63671875 16.171875 C-1.97880616 12.25183271 -3.21795511 8.634645 -4 4 C-4.66 4 -5.32 4 -6 4 C-4.60804085 1.2160817 -2.84424221 1.02101003 0 0 Z " fill="#2D363F" transform="translate(364,222)"/>
<path d="M0 0 C1.32 0.33 2.64 0.66 4 1 C4 1.99 4 2.98 4 4 C4.99 3.67 5.98 3.34 7 3 C7 4.32 7 5.64 7 7 C9.475 7.99 9.475 7.99 12 9 C12 12.3 12 15.6 12 19 C11.34 17.68 10.68 16.36 10 15 C10 15.99 10 16.98 10 18 C9.34 18 8.68 18 8 18 C7.67 18.66 7.34 19.32 7 20 C4.6859378 20.73075648 2.35171131 21.40138258 0 22 C-0.33 21.01 -0.66 20.02 -1 19 C-0.34 18.67 0.32 18.34 1 18 C-0.26946514 13.17557816 -0.26946514 13.17557816 -4 10 C-4 9.34 -4 8.68 -4 8 C-4.66 7.67 -5.32 7.34 -6 7 C-4.68 7 -3.36 7 -2 7 C-2.33 6.01 -2.66 5.02 -3 4 C-2.01 4 -1.02 4 0 4 C0 3.01 0 2.02 0 1 C0 0.67 0 0.34 0 0 Z " fill="#16212C" transform="translate(355,282)"/>
<path d="M0 0 C4.10334471 0.93257834 5.71602146 1.64129026 8.375 5 C10 8 10 8 10 10 C10.99 10.33 11.98 10.66 13 11 C12.34 12.32 11.68 13.64 11 15 C6.71 15 2.42 15 -2 15 C-2.66 13.68 -3.32 12.36 -4 11 C-4.66 11 -5.32 11 -6 11 C-6.33 9.02 -6.66 7.04 -7 5 C-4.69 4.34 -2.38 3.68 0 3 C0 2.01 0 1.02 0 0 Z " fill="#252D37" transform="translate(410,299)"/>
<path d="M0 0 C17.62043796 4.27554745 17.62043796 4.27554745 23 11 C23 11.66 23 12.32 23 13 C23.66 13.33 24.32 13.66 25 14 C23.68 14.33 22.36 14.66 21 15 C21 14.34 21 13.68 21 13 C20.34 13 19.68 13 19 13 C18.67 12.01 18.34 11.02 18 10 C17.34 10 16.68 10 16 10 C15.34 9.01 14.68 8.02 14 7 C13.34 8.32 12.68 9.64 12 11 C11.34 11 10.68 11 10 11 C10 11.66 10 12.32 10 13 C9.34 13.66 8.68 14.32 8 15 C5.94140625 14.828125 5.94140625 14.828125 3.5625 14.25 C2.78003906 14.06953125 1.99757813 13.8890625 1.19140625 13.703125 C-1 13 -1 13 -4 11 C-3.01 11 -2.02 11 -1 11 C-1.33 9.35 -1.66 7.7 -2 6 C-0.68 5.01 0.64 4.02 2 3 C1.34 2.67 0.68 2.34 0 2 C0 1.34 0 0.68 0 0 Z " fill="#2D3842" transform="translate(343,276)"/>
<path d="M0 0 C2.25245881 2.68841859 3.88213958 4.64641875 5 8 C5.66 8 6.32 8 7 8 C7.33 9.32 7.66 10.64 8 12 C5.36 12 2.72 12 0 12 C0 12.66 0 13.32 0 14 C-0.99 14.495 -0.99 14.495 -2 15 C-2.33 15.99 -2.66 16.98 -3 18 C-5 15 -5 15 -5 12 C-5.99 11.67 -6.98 11.34 -8 11 C-8.33 20.9 -8.66 30.8 -9 41 C-9.33 41 -9.66 41 -10 41 C-10 29.45 -10 17.9 -10 6 C-9.34 6 -8.68 6 -8 6 C-7.67 6.33 -7.34 6.66 -7 7 C-6.67 6.01 -6.34 5.02 -6 4 C-2.9375 2.8125 -2.9375 2.8125 0 2 C0 1.34 0 0.68 0 0 Z " fill="#464E58" transform="translate(253,199)"/>
<path d="M0 0 C3.24337843 2.69131402 5.52173342 4.69560075 6 9 C5.01 9 4.02 9 3 9 C2.34 10.32 1.68 11.64 1 13 C-1.97 12.505 -1.97 12.505 -5 12 C-5 11.01 -5 10.02 -5 9 C-5.99 9 -6.98 9 -8 9 C-8 7.68 -8 6.36 -8 5 C-9.62553283 3.29319053 -11.29115995 1.62339805 -13 0 C-13 -0.66 -13 -1.32 -13 -2 C-8.08531033 -3.68942457 -4.42006399 -2.33057919 0 0 Z " fill="#2F3841" transform="translate(360,258)"/>
<path d="M0 0 C6.625 -0.25 6.625 -0.25 10 2 C11.32 1.34 12.64 0.68 14 0 C18.875 4.625 18.875 4.625 20 8 C19.01 8.33 18.02 8.66 17 9 C16.01 10.485 16.01 10.485 15 12 C12.36034793 13.61785127 11.15987325 14 8 14 C5 9.77777778 5 9.77777778 5 7 C4.34 7 3.68 7 3 7 C2.01 4.69 1.02 2.38 0 0 Z " fill="#2C343F" transform="translate(394,292)"/>
<path d="M0 0 C1.91626837 4.98229776 2.5547115 9.72684667 3 15 C1.02 15.99 1.02 15.99 -1 17 C-9.15798611 9.0625 -9.15798611 9.0625 -10 3 C-9.01 3 -8.02 3 -7 3 C-7 2.34 -7 1.68 -7 1 C-4.53721199 -0.231394 -2.7204945 -0.07159196 0 0 Z " fill="#15212E" transform="translate(260,210)"/>
<path d="M0 0 C3.47914941 -0.02887814 6.95826831 -0.04675687 10.4375 -0.0625 C11.92733398 -0.07506836 11.92733398 -0.07506836 13.44726562 -0.08789062 C14.39150391 -0.09111328 15.33574219 -0.09433594 16.30859375 -0.09765625 C17.62041626 -0.10551147 17.62041626 -0.10551147 18.95874023 -0.11352539 C21 0 21 0 22 1 C22.14310287 4.6691577 22.04221662 8.32715441 22 12 C17.05 12 12.1 12 7 12 C7 26.85 7 41.7 7 57 C6.67 57 6.34 57 6 57 C6 41.82 6 26.64 6 11 C10.95 11 15.9 11 21 11 C21 8.36 21 5.72 21 3 C17.37 3 13.74 3 10 3 C10 2.34 10 1.68 10 1 C6.7 1 3.4 1 0 1 C0 0.67 0 0.34 0 0 Z " fill="#949698" transform="translate(408,183)"/>
<path d="M0 0 C1.25167969 0.05220703 2.50335938 0.10441406 3.79296875 0.15820312 C6.86228198 0.28706742 9.93120129 0.42199541 13 0.5625 C13 0.8925 13 1.2225 13 1.5625 C8.5420032 1.75866609 4.08359465 1.94297068 -0.375 2.125 C-1.64601563 2.18107422 -2.91703125 2.23714844 -4.2265625 2.29492188 C-5.43828125 2.34326172 -6.65 2.39160156 -7.8984375 2.44140625 C-9.57945557 2.51210327 -9.57945557 2.51210327 -11.29443359 2.58422852 C-14 2.5625 -14 2.5625 -16 1.5625 C-15.938125 2.325625 -15.87625 3.08875 -15.8125 3.875 C-16 6.5625 -16 6.5625 -17.5 8.375 C-17.995 8.766875 -18.49 9.15875 -19 9.5625 C-18.01 9.8925 -17.02 10.2225 -16 10.5625 C-15.3125 12.625 -15.3125 12.625 -15 14.5625 C-14.34 14.5625 -13.68 14.5625 -13 14.5625 C-12.67 15.5525 -12.34 16.5425 -12 17.5625 C-12.66 17.5625 -13.32 17.5625 -14 17.5625 C-14 16.9025 -14 16.2425 -14 15.5625 C-14.86625 15.19125 -14.86625 15.19125 -15.75 14.8125 C-18.44802385 13.31359786 -20.08748093 12.00261054 -22 9.5625 C-23.39285714 3.34821429 -23.39285714 3.34821429 -22 0.5625 C-14.7086965 -0.9297153 -7.39269121 -0.3395798 0 0 Z " fill="#3F7FCD" transform="translate(94,206.4375)"/>
<path d="M0 0 C0.88494141 -0.01224609 1.76988281 -0.02449219 2.68164062 -0.03710938 C3.52791016 -0.03904297 4.37417969 -0.04097656 5.24609375 -0.04296875 C6.02525146 -0.04707764 6.80440918 -0.05118652 7.60717773 -0.05541992 C9.5625 0.1875 9.5625 0.1875 11.5625 2.1875 C14.21787372 2.75270003 16.85394713 2.92538198 19.5625 3.1875 C19.5625 3.5175 19.5625 3.8475 19.5625 4.1875 C10.9825 4.1875 2.4025 4.1875 -6.4375 4.1875 C-6.7675 4.8475 -7.0975 5.5075 -7.4375 6.1875 C-7.7675 5.8575 -8.0975 5.5275 -8.4375 5.1875 C-8.7675 7.4975 -9.0975 9.8075 -9.4375 12.1875 C-11.4375 10.1875 -11.4375 10.1875 -11.44921875 8.05859375 C-11.34222656 7.25550781 -11.23523438 6.45242187 -11.125 5.625 C-11.02574219 4.81933594 -10.92648437 4.01367188 -10.82421875 3.18359375 C-9.87872031 -1.69670627 -4.03166351 0.00292361 0 0 Z " fill="#161E27" transform="translate(396.4375,182.8125)"/>
<path d="M0 0 C0.99 0 1.98 0 3 0 C7.42857143 7.42857143 7.42857143 7.42857143 8 11 C6 11 4 11 2 11 C2 12.32 2 13.64 2 15 C1.01 15.66 0.02 16.32 -1 17 C-1.309375 16.195625 -1.61875 15.39125 -1.9375 14.5625 C-2.76335345 12.10919595 -2.76335345 12.10919595 -4 11 C-4.04092937 8.66702567 -4.04241723 6.33294775 -4 4 C-2.68 3.67 -1.36 3.34 0 3 C0 2.01 0 1.02 0 0 Z " fill="#1A242F" transform="translate(303,273)"/>
<path d="M0 0 C0.4140625 2.28515625 0.4140625 2.28515625 0.625 5.0625 C0.69976562 5.98160156 0.77453125 6.90070313 0.8515625 7.84765625 C0.90054688 8.55792969 0.94953125 9.26820313 1 10 C0.01 10.33 -0.98 10.66 -2 11 C-2 8.03 -2 5.06 -2 2 C-13.22 2 -24.44 2 -36 2 C-36 1.34 -36 0.68 -36 0 C-31.19470128 -0.16746774 -26.38924097 -0.32804214 -21.58349609 -0.48217773 C-19.94801607 -0.53561099 -18.31259689 -0.5909414 -16.67724609 -0.64819336 C-14.32923506 -0.73006761 -11.9810911 -0.80515983 -9.6328125 -0.87890625 C-8.89942657 -0.90594131 -8.16604065 -0.93297638 -7.41043091 -0.96083069 C-2.22774341 -1.11387171 -2.22774341 -1.11387171 0 0 Z " fill="#171A20" transform="translate(326,184)"/>
<path d="M0 0 C0.94616328 3.42984189 1 6.44175575 1 10 C0.01 9.67 -0.98 9.34 -2 9 C-2.99 10.98 -3.98 12.96 -5 15 C-6.98 14.34 -8.96 13.68 -11 13 C-10.38722388 10.03824877 -9.74627478 8.61941217 -8 6 C-7.34 6 -6.68 6 -6 6 C-6 5.34 -6 4.68 -6 4 C-5.34 4 -4.68 4 -4 4 C-3.67 3.01 -3.34 2.02 -3 1 C-2.01 0.67 -1.02 0.34 0 0 Z " fill="#131E2B" transform="translate(157,221)"/>
<path d="M0 0 C0.66 0 1.32 0 2 0 C2 0.99 2 1.98 2 3 C2.66 3.33 3.32 3.66 4 4 C3 6 3 6 0.625 6.875 C-2.35774448 8.15331906 -3.2495689 9.33267643 -5 12 C-5.66 12.66 -6.32 13.32 -7 14 C-7.99 14 -8.98 14 -10 14 C-10.33 15.32 -10.66 16.64 -11 18 C-11.99 18 -12.98 18 -14 18 C-14 18.99 -14 19.98 -14 21 C-14.99 21 -15.98 21 -17 21 C-16.67 19.68 -16.34 18.36 -16 17 C-15.34 17 -14.68 17 -14 17 C-13.78472656 16.45601563 -13.56945312 15.91203125 -13.34765625 15.3515625 C-11.53620359 12.19070887 -9.04503977 9.87236204 -6.4375 7.375 C-2.77285984 4.03597098 -2.77285984 4.03597098 0 0 Z " fill="#50555D" transform="translate(98,272)"/>
<path d="M0 0 C1.32 0.66 2.64 1.32 4 2 C4.99 1.34 5.98 0.68 7 0 C7 3.3 7 6.6 7 10 C6.34 8.68 5.68 7.36 5 6 C5 6.99 5 7.98 5 9 C4.34 9 3.68 9 3 9 C2.67 9.66 2.34 10.32 2 11 C-0.3140622 11.73075648 -2.64828869 12.40138258 -5 13 C-5.33 12.01 -5.66 11.02 -6 10 C-5.34 9.67 -4.68 9.34 -4 9 C-4 8.34 -4 7.68 -4 7 C-3.34 6.67 -2.68 6.34 -2 6 C-2 5.01 -2 4.02 -2 3 C-1.34 2.01 -0.68 1.02 0 0 Z " fill="#121D29" transform="translate(360,291)"/>
<path d="M0 0 C0.66 0.33 1.32 0.66 2 1 C1.29518722 2.71168817 0.58271032 4.42078743 -0.17578125 6.109375 C-1.09589977 8.14867589 -1.09589977 8.14867589 -2 10.9375 C-4 13 -4 13 -6.6015625 13.33984375 C-9.43917521 13.37283925 -12.18030694 13.32146338 -15 13 C-15.33 12.67 -15.66 12.34 -16 12 C-15.71269945 9.66055264 -15.38063221 7.3260857 -15 5 C-14.76539063 5.64453125 -14.53078125 6.2890625 -14.2890625 6.953125 C-13.18838927 9.2077908 -13.18838927 9.2077908 -10.8359375 9.609375 C-9.61777344 9.67898438 -9.61777344 9.67898438 -8.375 9.75 C-7.14910156 9.83507812 -7.14910156 9.83507812 -5.8984375 9.921875 C-5.27195312 9.94765625 -4.64546875 9.9734375 -4 10 C-4.33 8.35 -4.66 6.7 -5 5 C-4.34 5 -3.68 5 -3 5 C-2.67 4.34 -2.34 3.68 -2 3 C-1.34 2.01 -0.68 1.02 0 0 Z " fill="#787E82" transform="translate(285,301)"/>
<path d="M0 0 C0.66 0.33 1.32 0.66 2 1 C2.40197001 3.32249342 2.72686657 5.65885633 3 8 C3.3403125 9.3303125 3.3403125 9.3303125 3.6875 10.6875 C4.06240603 13.46180464 3.46870279 14.6673544 2 17 C-0.475 16.01 -0.475 16.01 -3 15 C-2.34 14.01 -1.68 13.02 -1 12 C-0.9741392 9.77041944 -0.9741392 9.77041944 -1.375 7.4375 C-2 3.01162791 -2 3.01162791 -2 1 C-1.34 0.67 -0.68 0.34 0 0 Z M-5 9 C-2 10 -2 10 -2 10 Z " fill="#131E29" transform="translate(259,210)"/>
<path d="M0 0 C2.97 0 5.94 0 9 0 C9 3.3 9 6.6 9 10 C7 9 5 8 3 7 C3 7.66 3 8.32 3 9 C2.34 8.67 1.68 8.34 1 8 C1.33 7.34 1.66 6.68 2 6 C1.34 6 0.68 6 0 6 C0 4.02 0 2.04 0 0 Z " fill="#16202C" transform="translate(268,186)"/>
<path d="M0 0 C0.66 0.33 1.32 0.66 2 1 C2 2.65 2 4.3 2 6 C-2.06301046 6.98497223 -5.82395272 7.30933684 -10 7 C-11.9375 5.625 -11.9375 5.625 -13 4 C-13 3.34 -13 2.68 -13 2 C-13.66 1.67 -14.32 1.34 -15 1 C-12.03 1.495 -12.03 1.495 -9 2 C-9 2.99 -9 3.98 -9 5 C-5.27385847 3.88145414 -5.27385847 3.88145414 -3 1 C-2.01 0.67 -1.02 0.34 0 0 Z " fill="#505559" transform="translate(366,266)"/>
<path d="M0 0 C0.66 0.33 1.32 0.66 2 1 C1.8595017 3.7920301 1.71284617 6.58349796 1.5625 9.375 C1.50352539 10.56609375 1.50352539 10.56609375 1.44335938 11.78125 C1.11328125 17.7734375 1.11328125 17.7734375 0 20 C-3.96 20 -7.92 20 -12 20 C-12.33 19.01 -12.66 18.02 -13 17 C-8.71 17 -4.42 17 0 17 C0 11.39 0 5.78 0 0 Z " fill="#B8B9BA" transform="translate(388,294)"/>
<path d="M0 0 C0.99 0.33 1.98 0.66 3 1 C2.67 1.99 2.34 2.98 2 4 C1.88705254 5.39579273 1.82410813 6.79599909 1.79467773 8.19604492 C1.77473251 9.03668991 1.75478729 9.8773349 1.73423767 10.74345398 C1.71752518 11.64666885 1.70081268 12.54988373 1.68359375 13.48046875 C1.66281265 14.40845779 1.64203156 15.33644684 1.62062073 16.29255676 C1.55522677 19.2574624 1.49628738 22.22245672 1.4375 25.1875 C1.39430513 27.1972748 1.35069053 29.20704063 1.30664062 31.21679688 C1.19955573 36.14444032 1.09825955 41.07217299 1 46 C0.67 46 0.34 46 0 46 C-0.16802786 39.77052061 -0.32795472 33.54087151 -0.48217773 27.31103516 C-0.53563685 25.19054423 -0.59096917 23.07009969 -0.64819336 20.94970703 C-0.72999523 17.90667728 -0.80511898 14.8635458 -0.87890625 11.8203125 C-0.90594131 10.86818878 -0.93297638 9.91606506 -0.96083069 8.93508911 C-0.98092697 8.05432709 -1.00102325 7.17356506 -1.02172852 6.26611328 C-1.04171402 5.48889923 -1.06169952 4.71168518 -1.08229065 3.91091919 C-1 2 -1 2 0 0 Z " fill="#131A22" transform="translate(290,187)"/>
<path d="M0 0 C6.625 -0.25 6.625 -0.25 10 2 C10 3.32 10 4.64 10 6 C9.360625 6.12375 8.72125 6.2475 8.0625 6.375 C7.0415625 6.684375 7.0415625 6.684375 6 7 C5.67 7.66 5.34 8.32 5 9 C5 8.34 5 7.68 5 7 C4.34 7 3.68 7 3 7 C2.01 4.69 1.02 2.38 0 0 Z " fill="#2F3843" transform="translate(394,292)"/>
<path d="M0 0 C4.75 0.875 4.75 0.875 7 2 C7.8515625 3.84765625 7.8515625 3.84765625 8.625 6.0625 C8.88539063 6.79597656 9.14578125 7.52945312 9.4140625 8.28515625 C9.60742188 8.85105469 9.80078125 9.41695313 10 10 C6.37124133 10 4.98260647 8.77206006 2.296875 6.4453125 C0.50001243 4.44278494 0.15123577 2.64662605 0 0 Z " fill="#2E7AD6" transform="translate(144,284)"/>
<path d="M0 0 C0 2 0 2 -1.375 3.625 C-3 5 -3 5 -5 5 C-5 5.66 -5 6.32 -5 7 C-5.66 7 -6.32 7 -7 7 C-7.268125 7.5775 -7.53625 8.155 -7.8125 8.75 C-9.02929189 11.05550043 -10.30333879 13.02056192 -12 15 C-12.66 15 -13.32 15 -14 15 C-13.67 13.35 -13.34 11.7 -13 10 C-12.34 10 -11.68 10 -11 10 C-10.34 8.68 -9.68 7.36 -9 6 C-8.01 6 -7.02 6 -6 6 C-6 4.35 -6 2.7 -6 1 C-4 0 -4 0 0 0 Z " fill="#5D6167" transform="translate(128,284)"/>
<path d="M0 0 C0.33 0 0.66 0 1 0 C0.58725062 3.962394 -0.01828474 7.25906271 -1.5625 10.9375 C-3.24337763 15.10705568 -3.23920645 18.53481301 -3 23 C-4.32 23 -5.64 23 -7 23 C-7 19.95290393 -6.48251616 18.17419708 -5.46875 15.33203125 C-5.15292969 14.43935547 -4.83710938 13.54667969 -4.51171875 12.62695312 C-4.01091797 11.23379883 -4.01091797 11.23379883 -3.5 9.8125 C-3.16613281 8.87212891 -2.83226562 7.93175781 -2.48828125 6.96289062 C-1.66303159 4.6404023 -0.83345591 2.3195534 0 0 Z " fill="#0A2749" transform="translate(169,278)"/>
<path d="M0 0 C0.66 0.33 1.32 0.66 2 1 C1.52541716 5.27124556 -0.91842825 7.20508608 -4 10 C-5.31175986 11.02813611 -6.6369893 12.04084432 -8 13 C-8.66 12.34 -9.32 11.68 -10 11 C-9.36191406 10.37351563 -8.72382813 9.74703125 -8.06640625 9.1015625 C-7.24011719 8.28429687 -6.41382813 7.46703125 -5.5625 6.625 C-4.73878906 5.81289062 -3.91507813 5.00078125 -3.06640625 4.1640625 C-0.96565328 2.17651485 -0.96565328 2.17651485 0 0 Z " fill="#5A5E63" transform="translate(191,245)"/>
<path d="M0 0 C0.33 0.66 0.66 1.32 1 2 C0.360625 2.928125 -0.27875 3.85625 -0.9375 4.8125 C-3.08622093 7.84219943 -3.08622093 7.84219943 -4 11 C-4.66 11 -5.32 11 -6 11 C-6.66 12.65 -7.32 14.3 -8 16 C-8.33 14.68 -8.66 13.36 -9 12 C-8.34 12 -7.68 12 -7 12 C-7 11.01 -7 10.02 -7 9 C-6.34 9 -5.68 9 -5 9 C-5.226875 8.236875 -5.45375 7.47375 -5.6875 6.6875 C-6 4 -6 4 -4.75 2.25 C-3 1 -3 1 0 0 Z " fill="#5D6267" transform="translate(376,192)"/>
<path d="M0 0 C0.99 0.33 1.98 0.66 3 1 C2.34 2.32 1.68 3.64 1 5 C-3.29 5 -7.58 5 -12 5 C-12.66 3.68 -13.32 2.36 -14 1 C-13.01 1.33 -12.02 1.66 -11 2 C-9.04413253 2.19459037 -9.04413253 2.19459037 -7 2.1875 C-5.9790625 2.20876953 -5.9790625 2.20876953 -4.9375 2.23046875 C-2.67385868 2.10940411 -2.67385868 2.10940411 0 0 Z " fill="#B1B1B6" transform="translate(420,309)"/>
<path d="M0 0 C6.93 0.33 13.86 0.66 21 1 C21 1.33 21 1.66 21 2 C14.4 2 7.8 2 1 2 C0.34 3.98 -0.32 5.96 -1 8 C-1.99 8.33 -2.98 8.66 -4 9 C-3.67 7.35 -3.34 5.7 -3 4 C-2.34 4 -1.68 4 -1 4 C-0.67 2.68 -0.34 1.36 0 0 Z " fill="#101620" transform="translate(285,297)"/>
<path d="M0 0 C2.57161458 0.03255208 5.14322917 0.06510417 7.71484375 0.09765625 C7.71484375 4.71765625 7.71484375 9.33765625 7.71484375 14.09765625 C7.38484375 14.09765625 7.05484375 14.09765625 6.71484375 14.09765625 C6.71484375 10.13765625 6.71484375 6.17765625 6.71484375 2.09765625 C4.07484375 2.42765625 1.43484375 2.75765625 -1.28515625 3.09765625 C-1.61515625 4.74765625 -1.94515625 6.39765625 -2.28515625 8.09765625 C-2.61515625 8.09765625 -2.94515625 8.09765625 -3.28515625 8.09765625 C-3.32757348 5.7647085 -3.32608562 3.43063058 -3.28515625 1.09765625 C-2.28515625 0.09765625 -2.28515625 0.09765625 0 0 Z " fill="#0C1017" transform="translate(270.28515625,183.90234375)"/>
<path d="M0 0 C3.63 0 7.26 0 11 0 C11 0.33 11 0.66 11 1 C6.545 1.495 6.545 1.495 2 2 C2 2.99 2 3.98 2 5 C2.99 5.33 3.98 5.66 5 6 C5.33 7.98 5.66 9.96 6 12 C3.05248333 9.25576034 0.77226322 6.63780345 -1 3 C-0.67 2.01 -0.34 1.02 0 0 Z " fill="#6F7275" transform="translate(333,183)"/>
<path d="M0 0 C0.66 0 1.32 0 2 0 C1.67 2.64 1.34 5.28 1 8 C-2 8 -2 8 -3.60546875 6.46875 C-4.12753906 5.8190625 -4.64960938 5.169375 -5.1875 4.5 C-5.71730469 3.8503125 -6.24710938 3.200625 -6.79296875 2.53125 C-7.19128906 2.0259375 -7.58960938 1.520625 -8 1 C-4.62537285 1.54723683 -2.91765 2.0549 0 4 C0 2.68 0 1.36 0 0 Z " fill="#427FC6" transform="translate(161,294)"/>
<path d="M0 0 C0 0.99 0 1.98 0 3 C0.66 3.33 1.32 3.66 2 4 C0.60147088 6.79705825 -1.13651858 6.90914993 -4 8 C-4.99 8.66 -5.98 9.32 -7 10 C-7.33 9.01 -7.66 8.02 -8 7 C-6.85546875 5.17578125 -6.85546875 5.17578125 -5.1875 3.3125 C-4.37345703 2.37857422 -4.37345703 2.37857422 -3.54296875 1.42578125 C-2 0 -2 0 0 0 Z " fill="#283038" transform="translate(100,272)"/>
<path d="M0 0 C1.51400391 0.01740234 1.51400391 0.01740234 3.05859375 0.03515625 C4.07050781 0.04417969 5.08242188 0.05320313 6.125 0.0625 C7.29869141 0.07990234 7.29869141 0.07990234 8.49609375 0.09765625 C7.49609375 3.09765625 7.49609375 3.09765625 5.62109375 4.09765625 C4.91984375 4.42765625 4.21859375 4.75765625 3.49609375 5.09765625 C1.78687786 6.63888745 1.78687786 6.63888745 0.49609375 8.09765625 C-0.16390625 7.43765625 -0.82390625 6.77765625 -1.50390625 6.09765625 C-1.50390625 5.10765625 -1.50390625 4.11765625 -1.50390625 3.09765625 C-2.16390625 2.43765625 -2.82390625 1.77765625 -3.50390625 1.09765625 C-2.50390625 0.09765625 -2.50390625 0.09765625 0 0 Z " fill="#2A3037" transform="translate(378.50390625,254.90234375)"/>
<path d="M0 0 C4.19469571 0.59924224 8.00999834 1.57499941 12 3 C11.01 3.99 10.02 4.98 9 6 C8.34 5.67 7.68 5.34 7 5 C7 5.66 7 6.32 7 7 C3.63983107 5.87994369 2.30935087 4.62788203 0 2 C0 1.34 0 0.68 0 0 Z " fill="#131E27" transform="translate(347,256)"/>
<path d="M0 0 C0.98484375 0.02707031 1.9696875 0.05414063 2.984375 0.08203125 C3.73203125 0.11683594 4.4796875 0.15164062 5.25 0.1875 C5.25 0.5175 5.25 0.8475 5.25 1.1875 C8.22 1.6825 8.22 1.6825 11.25 2.1875 C11.25 2.5175 11.25 2.8475 11.25 3.1875 C4.32 3.1875 -2.61 3.1875 -9.75 3.1875 C-5.5452889 0.03396667 -4.89908143 -0.17496719 0 0 Z " fill="#45484E" transform="translate(310.75,227.8125)"/>
<path d="M0 0 C0.33 0.99 0.66 1.98 1 3 C0.01 3.66 -0.98 4.32 -2 5 C-1.67 5.66 -1.34 6.32 -1 7 C-0.34 6.67 0.32 6.34 1 6 C1.99 6.66 2.98 7.32 4 8 C3.360625 8.103125 2.72125 8.20625 2.0625 8.3125 C1.0415625 8.6528125 1.0415625 8.6528125 0 9 C-0.33 9.99 -0.66 10.98 -1 12 C-4 6.25 -4 6.25 -4 4 C-4.66 4 -5.32 4 -6 4 C-4.60804085 1.2160817 -2.84424221 1.02101003 0 0 Z " fill="#394049" transform="translate(364,222)"/>
<path d="M0 0 C2.375 -0.1875 2.375 -0.1875 5 0 C7 3 7 3 7 6 C6 8.1875 6 8.1875 5 10 C4.16121545 8.71186658 3.32913217 7.41936744 2.5 6.125 C2.0359375 5.40570313 1.571875 4.68640625 1.09375 3.9453125 C0 2 0 2 0 0 Z " fill="#3A4047" transform="translate(341,198)"/>
<path d="M0 0 C2.8203125 -0.29296875 2.8203125 -0.29296875 6.125 -0.1875 C7.76855469 -0.14689453 7.76855469 -0.14689453 9.4453125 -0.10546875 C10.28835938 -0.07066406 11.13140625 -0.03585938 12 0 C8.3671875 3.0078125 8.3671875 3.0078125 5.0625 2.9375 C1.15523683 3.01724006 -0.21461461 4.37846081 -3 7 C-2.38722388 4.03824877 -1.74627478 2.61941217 0 0 Z " fill="#474C50" transform="translate(368,183)"/>
<path d="M0 0 C3.49695404 0.64758408 6.12552877 1.90241288 9 4 C9.6875 6.125 9.6875 6.125 10 8 C10.66 8.33 11.32 8.66 12 9 C10.68 9.33 9.36 9.66 8 10 C8 9.34 8 8.68 8 8 C7.34 8 6.68 8 6 8 C5.67 7.01 5.34 6.02 5 5 C4.34 5 3.68 5 3 5 C2.67 4.01 2.34 3.02 2 2 C1.34 1.34 0.68 0.68 0 0 Z " fill="#4F5459" transform="translate(356,281)"/>
<path d="M0 0 C1.32 0.33 2.64 0.66 4 1 C4 1.99 4 2.98 4 4 C3.01 4.33 2.02 4.66 1 5 C0.67 3.35 0.34 1.7 0 0 Z M-2 3 C-0.68 4.32 0.64 5.64 2 7 C1.67 7.66 1.34 8.32 1 9 C-1.31 8.67 -3.62 8.34 -6 8 C-4.68 7.67 -3.36 7.34 -2 7 C-2.33 6.01 -2.66 5.02 -3 4 C-2.67 3.67 -2.34 3.34 -2 3 Z " fill="#121B26" transform="translate(355,282)"/>
<path d="M0 0 C4.13621084 3.3810038 7.81316569 6.66590534 11 11 C9.35 10.67 7.7 10.34 6 10 C5.67 9.01 5.34 8.02 5 7 C4.34 6.71125 3.68 6.4225 3 6.125 C1 5 1 5 0.25 2.375 C0.1675 1.59125 0.085 0.8075 0 0 Z " fill="#669BDA" transform="translate(163,250)"/>
<path d="M0 0 C0.33 0 0.66 0 1 0 C1 3.96 1 7.92 1 12 C-0.98 12 -2.96 12 -5 12 C-5 9.36 -5 6.72 -5 4 C-3.68 5.32 -2.36 6.64 -1 8 C-0.67 5.36 -0.34 2.72 0 0 Z " fill="#454951" transform="translate(266,207)"/>
<path d="M0 0 C1.39456452 0.00667256 2.78911118 0.01863093 4.18359375 0.03515625 C4.89451172 0.03966797 5.60542969 0.04417969 6.33789062 0.04882812 C8.09899388 0.06064761 9.86005411 0.07858362 11.62109375 0.09765625 C11.62109375 0.42765625 11.62109375 0.75765625 11.62109375 1.09765625 C10.77804687 1.13503906 9.935 1.17242187 9.06640625 1.2109375 C7.42285156 1.30955078 7.42285156 1.30955078 5.74609375 1.41015625 C4.65554688 1.46816406 3.565 1.52617187 2.44140625 1.5859375 C1.04535156 1.83923828 1.04535156 1.83923828 -0.37890625 2.09765625 C-2.67524449 5.54216362 -2.9190711 8.03577908 -3.37890625 12.09765625 C-5.37890625 10.09765625 -5.37890625 10.09765625 -5.390625 7.96875 C-5.28363281 7.16566406 -5.17664063 6.36257812 -5.06640625 5.53515625 C-4.96714844 4.72949219 -4.86789062 3.92382812 -4.765625 3.09375 C-4.10605334 -0.31070573 -3.66634089 0.10596361 0 0 Z " fill="#A1A2A4" transform="translate(390.37890625,182.90234375)"/>
<path d="M0 0 C0.66 0.66 1.32 1.32 2 2 C1.67 3.65 1.34 5.3 1 7 C-2.96 7 -6.92 7 -11 7 C-11 6.34 -11 5.68 -11 5 C-7.7 4.67 -4.4 4.34 -1 4 C-0.67 2.68 -0.34 1.36 0 0 Z " fill="#B2B2B3" transform="translate(321,307)"/>
<path d="M0 0 C0.33 0 0.66 0 1 0 C1 3.96 1 7.92 1 12 C-0.32 12.33 -1.64 12.66 -3 13 C-3.6875 10.6875 -3.6875 10.6875 -4 8 C-2.625 6.5 -2.625 6.5 -1 5 C-0.27802838 2.39388923 -0.27802838 2.39388923 0 0 Z " fill="#3D434B" transform="translate(367,291)"/>
<path d="M0 0 C1.32 0.66 2.64 1.32 4 2 C1.16569547 5.2542015 -0.68607774 6.5206753 -5 7 C-5 7.66 -5 8.32 -5 9 C-5.99 9.33 -6.98 9.66 -8 10 C-8 9.34 -8 8.68 -8 8 C-7.34 8 -6.68 8 -6 8 C-6 7.34 -6 6.68 -6 6 C-5.34 6 -4.68 6 -4 6 C-4 5.34 -4 4.68 -4 4 C-3.34 4 -2.68 4 -2 4 C-2 3.34 -2 2.68 -2 2 C-1.34 2 -0.68 2 0 2 C0 1.34 0 0.68 0 0 Z " fill="#464E54" transform="translate(108,262)"/>
<path d="M0 0 C0.66 0 1.32 0 2 0 C3.71767682 3.98188718 5.41037341 7.96479403 7 12 C4.625 11.375 4.625 11.375 2 10 C0.35002837 6.38577643 0 4.00165194 0 0 Z " fill="#5F6369" transform="translate(364,210)"/>
<path d="M0 0 C0.66 0 1.32 0 2 0 C2.36923077 5.53846154 2.36923077 5.53846154 0.5 7.875 C-0.2425 8.431875 -0.2425 8.431875 -1 9 C-2.65 7.68 -4.3 6.36 -6 5 C-4.35 5 -2.7 5 -1 5 C-0.67 3.35 -0.34 1.7 0 0 Z " fill="#2F3944" transform="translate(357,286)"/>
<path d="M0 0 C1.98 0 3.96 0 6 0 C5.34 1.32 4.68 2.64 4 4 C3.34 4 2.68 4 2 4 C2 4.66 2 5.32 2 6 C2.66 6.33 3.32 6.66 4 7 C3.67 7.99 3.34 8.98 3 10 C0 3.375 0 3.375 0 0 Z " fill="#4F5259" transform="translate(325,296)"/>
<path d="M0 0 C0 1.98 0 3.96 0 6 C-0.66 5.34 -1.32 4.68 -2 4 C-2.66 5.32 -3.32 6.64 -4 8 C-6.2477975 5.94766315 -7.0022242 4.99332739 -8 2 C-1.125 0 -1.125 0 0 0 Z " fill="#151D26" transform="translate(388,256)"/>
<path d="M0 0 C1.65 0 3.3 0 5 0 C5.28875 0.763125 5.5775 1.52625 5.875 2.3125 C6.96269013 5.15029308 6.96269013 5.15029308 9 8 C7.35 7.67 5.7 7.34 4 7 C3.67 5.35 3.34 3.7 3 2 C2.01 2 1.02 2 0 2 C0 1.34 0 0.68 0 0 Z " fill="#5D6166" transform="translate(333,294)"/>
<path d="M0 0 C1.33333333 0.66666667 2.66666667 1.33333333 4 2 C4.680625 2.268125 5.36125 2.53625 6.0625 2.8125 C8.69106364 4.42355513 9.6917299 6.24574716 11 9 C10.67 9.66 10.34 10.32 10 11 C8.33035479 9.35718838 6.6643536 7.71067239 5 6.0625 C4.071875 5.14597656 3.14375 4.22945313 2.1875 3.28515625 C0 1 0 1 0 0 Z " fill="#3075C4" transform="translate(123,264)"/>
<path d="M0 0 C0.33 0.66 0.66 1.32 1 2 C0.34 2 -0.32 2 -1 2 C-1 2.66 -1 3.32 -1 4 C-1.66 4 -2.32 4 -3 4 C-3.28875 4.639375 -3.5775 5.27875 -3.875 5.9375 C-5 8 -5 8 -7 9 C-7.36407767 4.50970874 -7.36407767 4.50970874 -5.75 2.25 C-3.83141429 0.87958164 -2.30908032 0.3981173 0 0 Z " fill="#4C5158" transform="translate(175,230)"/>
<path d="M0 0 C0.66 0.33 1.32 0.66 2 1 C-0.75 6.875 -0.75 6.875 -3 8 C-3.66 8.66 -4.32 9.32 -5 10 C-5.99 9.67 -6.98 9.34 -8 9 C-6.625 7 -6.625 7 -5 5 C-4.34 5 -3.68 5 -3 5 C-3 4.34 -3 3.68 -3 3 C-2.34 3 -1.68 3 -1 3 C-0.67 2.01 -0.34 1.02 0 0 Z " fill="#5D6167" transform="translate(154,222)"/>
<path d="M0 0 C3.05402088 1.52701044 3.65869481 3.95157912 5 7 C5 7.99 5 8.98 5 10 C4.01 10.495 4.01 10.495 3 11 C3 10.34 3 9.68 3 9 C2.01 9.33 1.02 9.66 0 10 C0 6.7 0 3.4 0 0 Z " fill="#3D4349" transform="translate(346,184)"/>
<path d="M0 0 C0.66 0 1.32 0 2 0 C0.66958425 8.35010941 0.66958425 8.35010941 -2.125 11.0625 C-2.74375 11.371875 -3.3625 11.68125 -4 12 C-3.33989524 9.15449988 -2.48275034 6.47674001 -1.4375 3.75 C-1.16808594 3.04359375 -0.89867187 2.3371875 -0.62109375 1.609375 C-0.41613281 1.07828125 -0.21117187 0.5471875 0 0 Z " fill="#6E7276" transform="translate(278,285)"/>
<path d="M0 0 C2.97 0.495 2.97 0.495 6 1 C6 1.99 6 2.98 6 4 C7.65 4 9.3 4 11 4 C11.33 4.66 11.66 5.32 12 6 C5.51707705 6.3669579 5.51707705 6.3669579 3.0625 4.625 C2 3 2 3 2 1 C1.34 0.67 0.68 0.34 0 0 Z " fill="#61656A" transform="translate(351,267)"/>
<path d="M0 0 C2.96865509 2.54456151 4.3619751 5.48994665 6 9 C4.02 9 2.04 9 0 9 C0 6 0 3 0 0 Z " fill="#575C64" transform="translate(352,194)"/>
<path d="M0 0 C0.33 0.66 0.66 1.32 1 2 C2.98 1.67 4.96 1.34 7 1 C6.01 1.33 5.02 1.66 4 2 C2.79117904 4.00016466 2.79117904 4.00016466 2 6 C0.68 6 -0.64 6 -2 6 C-1.49396008 3.83125748 -1.00016187 2.00032373 0 0 Z " fill="#14202B" transform="translate(359,265)"/>
<path d="M0 0 C2.9375 1.25 2.9375 1.25 6 3 C6.875 5.1875 6.875 5.1875 7 7 C7.66 7 8.32 7 9 7 C9.33 7.99 9.66 8.98 10 10 C9.34 10 8.68 10 8 10 C8 9.34 8 8.68 8 8 C7.4225 7.7525 6.845 7.505 6.25 7.25 C3.67060021 5.81700012 1.93878408 4.21575324 0 2 C0 1.34 0 0.68 0 0 Z " fill="#7DAEE1" transform="translate(72,214)"/>
<path d="M0 0 C0.99 0 1.98 0 3 0 C3 0.99 3 1.98 3 3 C4.65 2.34 6.3 1.68 8 1 C8 2.65 8 4.3 8 6 C6.68 6.33 5.36 6.66 4 7 C2.02 3.535 2.02 3.535 0 0 Z " fill="#4A5258" transform="translate(251,217)"/>
<path d="M0 0 C2 1 2 1 2.8515625 3.50390625 C3.10679687 4.51324219 3.36203125 5.52257812 3.625 6.5625 C3.88539063 7.57441406 4.14578125 8.58632813 4.4140625 9.62890625 C4.60742188 10.41136719 4.80078125 11.19382812 5 12 C3.35 11.67 1.7 11.34 0 11 C-0.33 10.01 -0.66 9.02 -1 8 C-0.01 8 0.98 8 2 8 C1.34 5.36 0.68 2.72 0 0 Z " fill="#72777B" transform="translate(313,285)"/>
<path d="M0 0 C1.32 0 2.64 0 4 0 C2.8905928 3.48670834 1.73662334 6.77484237 0 10 C-1.07193479 6.78419562 -1.14636054 4.36629251 -1 1 C-0.67 0.67 -0.34 0.34 0 0 Z " fill="#7A8286" transform="translate(293,273)"/>
<path d="M0 0 C0.66 0 1.32 0 2 0 C2.33 1.32 2.66 2.64 3 4 C0.03 6.475 0.03 6.475 -3 9 C-3 5.30581799 -1.71820705 3.22163822 0 0 Z " fill="#4E5157" transform="translate(345,215)"/>
<path d="M0 0 C0.66 0 1.32 0 2 0 C2 0.66 2 1.32 2 2 C2.66 2 3.32 2 4 2 C4.33 3.32 4.66 4.64 5 6 C2.69 6 0.38 6 -2 6 C-2 5.34 -2 4.68 -2 4 C-1.34 4 -0.68 4 0 4 C-0.33 3.01 -0.66 2.02 -1 1 C-0.67 0.67 -0.34 0.34 0 0 Z " fill="#464B52" transform="translate(256,205)"/>
<path d="M0 0 C-0.33 1.32 -0.66 2.64 -1 4 C-1.66 4 -2.32 4 -3 4 C-3.33 4.99 -3.66 5.98 -4 7 C-4.33 6.34 -4.66 5.68 -5 5 C-5.66 4.67 -6.32 4.34 -7 4 C-3.375 0 -3.375 0 0 0 Z " fill="#3F444B" transform="translate(184,220)"/>
<path d="M0 0 C2 2 2 2 2.125 5.625 C2.08375 6.73875 2.0425 7.8525 2 9 C1.34 8.67 0.68 8.34 0 8 C0 7.34 0 6.68 0 6 C-0.66 6 -1.32 6 -2 6 C-1.49396008 3.83125748 -1.00016187 2.00032373 0 0 Z " fill="#3E444B" transform="translate(330,275)"/>
<path d="M0 0 C1.98 0.66 3.96 1.32 6 2 C6 2.66 6 3.32 6 4 C4.02 4.33 2.04 4.66 0 5 C-0.33 4.01 -0.66 3.02 -1 2 C-0.67 1.34 -0.34 0.68 0 0 Z " fill="#252D36" transform="translate(360,262)"/>
<path d="M0 0 C4.29 0.33 8.58 0.66 13 1 C13 1.33 13 1.66 13 2 C9.37 2 5.74 2 2 2 C2 2.66 2 3.32 2 4 C1.01 3.67 0.02 3.34 -1 3 C-0.67 2.01 -0.34 1.02 0 0 Z " fill="#11171F" transform="translate(406,256)"/>
<path d="M0 0 C0.66 1.32 1.32 2.64 2 4 C-0.31 5.32 -2.62 6.64 -5 8 C-5.33 7.34 -5.66 6.68 -6 6 C-5.34 6 -4.68 6 -4 6 C-4 5.34 -4 4.68 -4 4 C-3.34 4 -2.68 4 -2 4 C-2 3.34 -2 2.68 -2 2 C-1.34 2 -0.68 2 0 2 C0 1.34 0 0.68 0 0 Z " fill="#4D565B" transform="translate(162,214)"/>
<path d="M0 0 C1 2 1 2 0.0625 5.125 C-0.288125 6.07375 -0.63875 7.0225 -1 8 C-2.65 7.67 -4.3 7.34 -6 7 C-4.02 4.69 -2.04 2.38 0 0 Z " fill="#666B71" transform="translate(186,189)"/>
<path d="M0 0 C1.62490954 -0.02698189 3.24994633 -0.04638757 4.875 -0.0625 C5.77992188 -0.07410156 6.68484375 -0.08570313 7.6171875 -0.09765625 C10 0 10 0 12 1 C11.67 1.66 11.34 2.32 11 3 C10.0925 2.79375 9.185 2.5875 8.25 2.375 C4.88972103 1.9872755 3.75924185 2.19588033 1 4 C0.67 2.68 0.34 1.36 0 0 Z " fill="#848588" transform="translate(232,183)"/>
<path d="M0 0 C0.33 0.66 0.66 1.32 1 2 C0.67 2.66 0.34 3.32 0 4 C-0.99 4 -1.98 4 -3 4 C-3 4.99 -3 5.98 -3 7 C-3.99 7 -4.98 7 -6 7 C-5.67 5.68 -5.34 4.36 -5 3 C-4.34 3 -3.68 3 -3 3 C-3 2.34 -3 1.68 -3 1 C-2.01 0.67 -1.02 0.34 0 0 Z " fill="#3C4147" transform="translate(87,286)"/>
<path d="M0 0 C0.93423645 3.01031744 1.04449911 3.86650268 0 7 C-0.66 7 -1.32 7 -2 7 C-2.33 7.99 -2.66 8.98 -3 10 C-3.75 7.8125 -3.75 7.8125 -4 5 C-2.0625 2.1875 -2.0625 2.1875 0 0 Z " fill="#484F57" transform="translate(395,269)"/>
<path d="M0 0 C0 3 0 3 -1.25 4.75 C-3 6 -3 6 -5.1875 5.6875 C-5.785625 5.460625 -6.38375 5.23375 -7 5 C-6.67 4.01 -6.34 3.02 -6 2 C-2.9375 0.8125 -2.9375 0.8125 0 0 Z " fill="#394452" transform="translate(165,241)"/>
<path d="M0 0 C0.598125 0.33 1.19625 0.66 1.8125 1 C4.05386471 2.20787988 4.05386471 2.20787988 7 2 C5 5 5 5 2.875 5.6875 C2.25625 5.790625 1.6375 5.89375 1 6 C0.4465236 3.92446352 0 2.15634036 0 0 Z " fill="#121C28" transform="translate(358,219)"/>
<path d="M0 0 C1 3 1 3 0.0625 5.1875 C-0.4634375 6.0846875 -0.4634375 6.0846875 -1 7 C-2.32 7 -3.64 7 -5 7 C-5 6.01 -5 5.02 -5 4 C-3.35 3.34 -1.7 2.68 0 2 C0 1.34 0 0.68 0 0 Z " fill="#454A4E" transform="translate(380,184)"/>
<path d="M0 0 C-0.33 0.66 -0.66 1.32 -1 2 C-3.64 2 -6.28 2 -9 2 C-9 1.34 -9 0.68 -9 0 C-5.52176885 -1.15941038 -3.54104422 -0.70820884 0 0 Z " fill="#32343A" transform="translate(408,184)"/>
<path d="M0 0 C0.66 0 1.32 0 2 0 C2 1.32 2 2.64 2 4 C1.34 4 0.68 4 0 4 C-0.33 4.99 -0.66 5.98 -1 7 C-1.99 6.01 -2.98 5.02 -4 4 C-3.34 4 -2.68 4 -2 4 C-2 3.34 -2 2.68 -2 2 C-1.34 2 -0.68 2 0 2 C0 1.34 0 0.68 0 0 Z " fill="#141C29" transform="translate(101,305)"/>
<path d="M0 0 C0.6875 1.625 0.6875 1.625 1 4 C-0.4375 7.25 -0.4375 7.25 -2 10 C-2.33 10 -2.66 10 -3 10 C-3 7.69 -3 5.38 -3 3 C-2.01 3 -1.02 3 0 3 C0 2.01 0 1.02 0 0 Z " fill="#2E78C7" transform="translate(168,278)"/>
<path d="M0 0 C3.36720387 1.39332574 4.9859524 2.9789286 7 6 C6.01 6.495 6.01 6.495 5 7 C5 6.34 5 5.68 5 5 C3.35 4.67 1.7 4.34 0 4 C0 2.68 0 1.36 0 0 Z " fill="#0B2644" transform="translate(114,257)"/>
<path d="M0 0 C0.33 0 0.66 0 1 0 C1 2.66666667 1 5.33333333 1 8 C-0.65 6.35 -2.3 4.7 -4 3 C-3.01 3 -2.02 3 -1 3 C-0.67 2.01 -0.34 1.02 0 0 Z " fill="#2B76D3" transform="translate(122,256)"/>
<path d="M0 0 C0.66 0.33 1.32 0.66 2 1 C1.67 1.99 1.34 2.98 1 4 C0.34 4 -0.32 4 -1 4 C-1 4.66 -1 5.32 -1 6 C-2.32 6.33 -3.64 6.66 -5 7 C-3.75023244 3.34683329 -3.32901247 2.21934164 0 0 Z " fill="#111B24" transform="translate(364,195)"/>
<path d="M0 0 C0.66 0 1.32 0 2 0 C1.60196439 2.88575819 1.20990931 3.82189513 -1.0625 5.75 C-1.701875 6.1625 -2.34125 6.575 -3 7 C-3.66 6.67 -4.32 6.34 -5 6 C-4.67 5.34 -4.34 4.68 -4 4 C-3.34 4 -2.68 4 -2 4 C-2 3.34 -2 2.68 -2 2 C-1.34 2 -0.68 2 0 2 C0 1.34 0 0.68 0 0 Z " fill="#44494E" transform="translate(105,305)"/>
<path d="M0 0 C2.475 0.99 2.475 0.99 5 2 C4 5 4 5 1 7 C0.67 4.69 0.34 2.38 0 0 Z " fill="#111C26" transform="translate(301,283)"/>
<path d="M0 0 C0.66 0.66 1.32 1.32 2 2 C1.38125 2.28875 0.7625 2.5775 0.125 2.875 C-2.13325765 3.93720042 -2.13325765 3.93720042 -4 6 C-4.66 5.34 -5.32 4.68 -6 4 C-3.94766315 1.7522025 -2.99332739 0.9977758 0 0 Z " fill="#40454B" transform="translate(187,252)"/>
<path d="M0 0 C1.32 0 2.64 0 4 0 C4.33 0.99 4.66 1.98 5 3 C5.66 3.66 6.32 4.32 7 5 C7 5.66 7 6.32 7 7 C6.34 7 5.68 7 5 7 C0 1.4047619 0 1.4047619 0 0 Z " fill="#679BD8" transform="translate(144,286)"/>
<path d="M0 0 C0.99 0.33 1.98 0.66 3 1 C1.25 4.875 1.25 4.875 -1 6 C-1.33 4.35 -1.66 2.7 -2 1 C-1.34 0.67 -0.68 0.34 0 0 Z " fill="#1D252E" transform="translate(402,298)"/>
<path d="M0 0 C0.66 0.33 1.32 0.66 2 1 C1 3 0 5 -1 7 C-1.66 7 -2.32 7 -3 7 C-2.67 5.35 -2.34 3.7 -2 2 C-1.34 2 -0.68 2 0 2 C0 1.34 0 0.68 0 0 Z " fill="#4C5359" transform="translate(117,292)"/>
<path d="M0 0 C0.66 0 1.32 0 2 0 C2 0.99 2 1.98 2 3 C2.66 3.33 3.32 3.66 4 4 C1.69 4.33 -0.62 4.66 -3 5 C-1.625 2.5 -1.625 2.5 0 0 Z " fill="#474C51" transform="translate(98,272)"/>
<path d="M0 0 C1.98 0.99 1.98 0.99 4 2 C4 2.66 4 3.32 4 4 C2.68 3.67 1.36 3.34 0 3 C0 2.01 0 1.02 0 0 Z M-2 2 C-1.34 2.33 -0.68 2.66 0 3 C-0.33 3.99 -0.66 4.98 -1 6 C-1.66 5.67 -2.32 5.34 -3 5 C-2.67 4.01 -2.34 3.02 -2 2 Z " fill="#3A4149" transform="translate(360,259)"/>
<path d="M0 0 C2.97 0.495 2.97 0.495 6 1 C6 2.65 6 4.3 6 6 C3.97945196 4.35830472 1.97956942 2.69088222 0 1 C0 0.67 0 0.34 0 0 Z " fill="#4888D3" transform="translate(99,241)"/>
<path d="M0 0 C2.625 -0.1875 2.625 -0.1875 5 0 C2.4837822 2.60608273 -0.05134359 4.89381685 -3 7 C-2.38722388 4.03824877 -1.74627478 2.61941217 0 0 Z " fill="#97999B" transform="translate(368,183)"/>
</svg>
